<svg id="svg" version="1.1" width="400" height="454.17322834645665" viewBox="0 0 400 454.17322834645665" xmlns="http://www.w3.org/2000/svg" xmlns:xlink="http://www.w3.org/1999/xlink" ><g id="svgg"><path id="path0" d="M37.600 0.470 C 36.170 0.674,34.829 1.011,34.620 1.220 C 34.411 1.429,33.837 1.600,33.344 1.600 C 32.851 1.600,32.346 1.764,32.222 1.965 C 32.097 2.166,31.277 2.452,30.398 2.600 C 29.519 2.749,28.800 3.034,28.800 3.235 C 28.800 3.436,28.610 3.600,28.378 3.600 C 27.037 3.600,19.677 7.936,17.200 10.185 C 15.741 11.510,11.570 15.702,10.338 17.083 C 7.841 19.879,3.600 26.989,3.600 28.378 C 3.600 28.610,3.436 28.800,3.235 28.800 C 3.034 28.800,2.749 29.519,2.600 30.398 C 2.452 31.277,2.166 32.097,1.965 32.222 C 1.764 32.346,1.600 32.887,1.600 33.424 C 1.600 33.961,1.444 34.400,1.252 34.400 C -0.361 34.400,-0.375 59.690,1.237 61.380 C 1.437 61.589,1.600 62.163,1.600 62.656 C 1.600 63.149,1.766 63.655,1.969 63.781 C 2.172 63.906,2.459 64.559,2.607 65.232 C 2.755 65.904,3.127 66.937,3.435 67.527 C 3.743 68.117,3.996 68.825,3.998 69.100 C 3.999 69.375,4.166 69.600,4.368 69.600 C 4.571 69.600,4.855 70.140,5.000 70.800 C 5.145 71.460,5.429 72.000,5.632 72.000 C 5.834 72.000,6.000 72.270,6.000 72.600 C 6.000 72.930,6.168 73.200,6.373 73.200 C 6.578 73.200,6.870 73.591,7.022 74.069 C 7.317 74.998,7.579 75.369,9.300 77.290 C 9.905 77.966,10.400 78.670,10.400 78.856 C 10.400 79.284,15.939 84.799,17.174 85.600 C 17.682 85.930,18.333 86.425,18.620 86.700 C 18.908 86.975,19.316 87.200,19.529 87.200 C 19.741 87.200,20.018 87.470,20.145 87.800 C 20.271 88.130,20.651 88.400,20.987 88.400 C 21.324 88.400,21.600 88.577,21.600 88.792 C 21.600 89.008,22.050 89.298,22.600 89.436 C 23.150 89.574,23.600 89.833,23.600 90.012 C 23.600 90.190,24.140 90.455,24.800 90.600 C 25.460 90.745,26.000 91.029,26.000 91.232 C 26.000 91.434,26.360 91.600,26.800 91.600 C 27.240 91.600,27.600 91.780,27.600 92.000 C 27.600 92.220,27.825 92.401,28.100 92.402 C 28.375 92.404,29.103 92.667,29.717 92.988 C 30.331 93.308,31.458 93.687,32.221 93.830 C 32.984 93.974,33.701 94.240,33.814 94.422 C 33.926 94.604,35.274 94.877,36.809 95.028 C 38.344 95.180,39.600 95.445,39.600 95.618 C 39.600 95.924,41.828 96.192,48.100 96.640 C 50.183 96.788,51.200 96.720,51.200 96.430 C 51.200 96.164,52.268 96.000,54.000 96.000 C 55.540 96.000,56.800 95.846,56.800 95.657 C 56.800 95.468,57.915 95.197,59.278 95.055 C 60.640 94.913,61.855 94.639,61.978 94.447 C 62.100 94.255,62.964 93.970,63.898 93.814 C 64.832 93.658,65.685 93.386,65.793 93.211 C 65.902 93.035,66.623 92.772,67.396 92.627 C 68.168 92.482,68.800 92.229,68.800 92.064 C 68.800 91.899,69.610 91.430,70.600 91.022 C 71.590 90.613,72.400 90.144,72.400 89.979 C 72.400 89.814,72.895 89.483,73.500 89.245 C 74.896 88.695,75.906 88.036,77.095 86.900 C 77.613 86.405,78.178 86.000,78.351 86.000 C 78.822 86.000,84.396 80.449,85.990 78.393 C 86.754 77.407,87.496 76.510,87.640 76.400 C 87.783 76.290,88.276 75.495,88.736 74.632 C 89.195 73.770,89.713 72.960,89.886 72.832 C 90.425 72.433,91.600 70.108,91.600 69.438 C 91.600 69.087,91.772 68.800,91.982 68.800 C 92.192 68.800,92.482 68.170,92.626 67.400 C 92.771 66.630,93.033 66.000,93.209 66.000 C 93.386 66.000,93.651 65.281,93.800 64.402 C 93.948 63.523,94.234 62.703,94.435 62.578 C 94.636 62.454,94.800 61.838,94.800 61.210 C 94.800 60.581,94.964 60.007,95.164 59.933 C 96.058 59.606,97.204 44.566,96.452 43.023 C 96.231 42.570,95.934 40.806,95.792 39.103 C 95.649 37.399,95.367 35.904,95.166 35.779 C 94.965 35.655,94.800 35.124,94.800 34.600 C 94.800 34.076,94.636 33.546,94.435 33.422 C 94.234 33.297,93.948 32.477,93.800 31.598 C 93.651 30.719,93.389 30.000,93.216 30.000 C 93.043 30.000,92.790 29.295,92.652 28.434 C 92.514 27.572,92.266 26.807,92.101 26.734 C 91.935 26.660,91.485 26.015,91.100 25.300 C 90.715 24.585,90.085 23.415,89.700 22.700 C 89.315 21.985,88.908 21.310,88.796 21.200 C 88.684 21.090,88.144 20.326,87.596 19.503 C 87.048 18.679,86.465 18.004,86.300 18.003 C 86.135 18.001,86.000 17.798,86.000 17.551 C 86.000 16.639,76.696 8.000,75.714 8.000 C 75.431 8.000,75.200 7.823,75.200 7.608 C 75.200 7.392,74.750 7.102,74.200 6.964 C 73.650 6.826,73.200 6.553,73.200 6.357 C 73.200 6.160,72.945 6.000,72.633 6.000 C 72.322 6.000,72.007 5.865,71.933 5.700 C 71.764 5.319,68.263 3.600,67.656 3.600 C 67.405 3.600,67.200 3.436,67.200 3.235 C 67.200 3.034,66.480 2.749,65.600 2.600 C 64.720 2.451,64.000 2.186,64.000 2.010 C 64.000 1.679,63.778 1.620,58.800 0.629 C 55.386 -0.051,41.955 -0.152,37.600 0.470 M237.600 0.470 C 236.170 0.674,234.829 1.011,234.620 1.220 C 234.411 1.429,233.826 1.600,233.320 1.600 C 232.814 1.600,232.400 1.757,232.400 1.949 C 232.400 2.141,231.680 2.413,230.800 2.554 C 229.920 2.694,229.200 2.967,229.200 3.160 C 229.200 3.353,228.570 3.629,227.800 3.774 C 227.030 3.918,226.400 4.194,226.400 4.386 C 226.400 4.579,225.860 4.855,225.200 5.000 C 224.540 5.145,224.000 5.429,224.000 5.632 C 224.000 5.834,223.730 6.000,223.400 6.000 C 223.070 6.000,222.800 6.177,222.800 6.392 C 222.800 6.608,222.350 6.898,221.800 7.036 C 221.250 7.174,220.795 7.402,220.789 7.543 C 220.783 7.685,220.063 8.241,219.189 8.780 C 218.315 9.320,217.600 9.905,217.600 10.080 C 217.600 10.256,217.426 10.400,217.213 10.400 C 216.676 10.400,211.118 15.936,210.183 17.401 C 209.763 18.061,209.190 18.744,208.910 18.920 C 208.629 19.096,208.400 19.501,208.400 19.820 C 208.400 20.139,208.248 20.400,208.063 20.400 C 207.878 20.400,207.383 21.072,206.963 21.894 C 206.543 22.716,205.975 23.628,205.700 23.922 C 205.425 24.217,205.200 24.714,205.200 25.029 C 205.200 25.343,205.040 25.600,204.843 25.600 C 204.647 25.600,204.367 26.095,204.221 26.700 C 203.858 28.204,203.059 30.000,202.753 30.000 C 202.615 30.000,202.381 30.760,202.232 31.688 C 202.084 32.616,201.797 33.478,201.595 33.603 C 201.392 33.728,201.104 34.904,200.953 36.215 C 200.802 37.527,200.481 38.728,200.239 38.885 C 199.628 39.283,199.628 56.317,200.239 56.715 C 200.481 56.872,200.803 58.078,200.954 59.395 C 201.105 60.712,201.403 61.963,201.615 62.175 C 201.827 62.387,202.001 62.929,202.002 63.380 C 202.004 63.831,202.274 64.716,202.602 65.346 C 202.931 65.976,203.200 66.741,203.200 67.046 C 203.200 67.351,203.380 67.600,203.600 67.600 C 203.820 67.600,204.001 67.825,204.002 68.100 C 204.003 68.544,204.434 69.446,206.692 73.729 C 207.020 74.351,207.538 74.955,207.844 75.072 C 208.150 75.190,208.400 75.538,208.400 75.847 C 208.400 76.155,208.760 76.716,209.200 77.093 C 209.640 77.470,210.000 77.939,210.000 78.136 C 210.000 78.659,217.388 86.000,217.915 86.000 C 218.160 86.000,218.504 86.242,218.680 86.537 C 218.856 86.832,219.540 87.413,220.200 87.828 C 220.860 88.242,221.490 88.676,221.600 88.791 C 221.710 88.906,222.700 89.450,223.800 90.000 C 224.900 90.550,225.890 91.099,226.000 91.221 C 226.388 91.649,229.129 92.800,229.760 92.800 C 230.112 92.800,230.400 92.969,230.400 93.175 C 230.400 93.382,231.210 93.672,232.200 93.821 C 233.190 93.969,234.000 94.236,234.000 94.414 C 234.000 94.591,235.173 94.862,236.606 95.015 C 238.039 95.169,239.309 95.453,239.429 95.647 C 239.549 95.841,240.796 96.000,242.200 96.000 C 243.604 96.000,244.864 96.180,245.000 96.400 C 245.322 96.922,251.078 96.922,251.400 96.400 C 251.536 96.180,252.807 96.000,254.224 96.000 C 255.641 96.000,256.800 95.843,256.800 95.652 C 256.800 95.460,258.060 95.179,259.600 95.027 C 261.140 94.876,262.400 94.603,262.400 94.421 C 262.400 94.239,263.210 93.969,264.200 93.821 C 265.190 93.672,266.000 93.402,266.000 93.220 C 266.000 93.038,266.630 92.771,267.400 92.626 C 268.170 92.482,268.802 92.237,268.805 92.082 C 268.807 91.927,269.572 91.443,270.505 91.006 C 271.437 90.569,272.290 90.119,272.400 90.006 C 272.510 89.893,273.455 89.354,274.500 88.808 C 275.545 88.263,276.400 87.678,276.400 87.508 C 276.400 87.339,276.565 87.200,276.766 87.200 C 277.500 87.200,285.585 79.732,285.595 79.046 C 285.598 78.851,286.050 78.275,286.600 77.765 C 287.150 77.255,287.600 76.678,287.600 76.481 C 287.600 76.285,288.051 75.601,288.602 74.962 C 289.154 74.323,289.718 73.440,289.856 73.000 C 289.995 72.560,290.219 72.110,290.354 72.000 C 290.741 71.686,292.400 68.164,292.400 67.656 C 292.400 67.405,292.580 67.200,292.800 67.200 C 293.020 67.200,293.200 66.951,293.200 66.646 C 293.200 66.341,293.469 65.576,293.798 64.946 C 294.126 64.316,294.396 63.431,294.398 62.980 C 294.399 62.529,294.579 61.981,294.798 61.762 C 295.016 61.544,295.312 60.248,295.454 58.882 C 295.597 57.517,295.851 56.400,296.018 56.400 C 296.186 56.400,296.421 54.645,296.542 52.500 C 296.662 50.355,296.772 48.420,296.786 48.200 C 296.881 46.676,296.237 39.600,296.004 39.600 C 295.844 39.600,295.597 38.483,295.454 37.118 C 295.312 35.752,295.016 34.456,294.798 34.238 C 294.579 34.019,294.399 33.471,294.398 33.020 C 294.396 32.569,294.126 31.684,293.798 31.054 C 293.469 30.424,293.200 29.659,293.200 29.354 C 293.200 29.049,293.028 28.800,292.818 28.800 C 292.608 28.800,292.318 28.170,292.174 27.400 C 292.029 26.630,291.765 26.000,291.587 26.000 C 291.409 26.000,291.145 25.460,291.000 24.800 C 290.855 24.140,290.592 23.600,290.415 23.600 C 290.238 23.600,289.988 23.285,289.858 22.900 C 289.524 21.904,288.685 20.655,288.100 20.280 C 287.825 20.104,287.600 19.776,287.600 19.552 C 287.600 19.327,287.375 18.905,287.100 18.613 C 286.825 18.322,286.150 17.505,285.600 16.798 C 283.775 14.452,280.426 11.200,279.836 11.200 C 279.516 11.200,279.151 10.876,279.025 10.479 C 278.899 10.083,278.082 9.318,277.209 8.779 C 276.336 8.241,275.617 7.665,275.611 7.500 C 275.605 7.335,275.343 7.200,275.029 7.200 C 274.714 7.200,274.219 6.975,273.929 6.699 C 273.638 6.424,272.680 5.839,271.800 5.399 C 270.920 4.960,270.142 4.471,270.071 4.313 C 270.000 4.155,269.325 3.910,268.571 3.768 C 267.817 3.627,267.200 3.367,267.200 3.191 C 267.200 3.014,266.481 2.749,265.602 2.600 C 264.723 2.452,263.903 2.166,263.778 1.965 C 263.654 1.764,263.113 1.600,262.576 1.600 C 262.039 1.600,261.600 1.444,261.600 1.252 C 261.600 0.178,243.729 -0.405,237.600 0.470 M57.400 1.613 C 100.382 12.187,109.251 66.561,71.622 88.807 C 33.144 111.555,-12.910 70.933,4.496 29.600 C 5.190 27.950,6.173 25.929,6.679 25.108 C 7.186 24.287,7.600 23.513,7.600 23.387 C 7.600 22.968,11.869 17.429,13.648 15.540 C 18.822 10.046,25.350 5.932,33.800 2.841 C 35.107 2.363,38.253 1.674,41.400 1.175 C 44.218 0.729,55.005 1.024,57.400 1.613 M258.400 1.793 C 264.702 3.409,271.244 6.291,275.400 9.282 C 295.460 23.716,301.327 50.968,288.870 71.851 C 272.924 98.586,236.792 103.145,214.790 81.200 C 187.057 53.538,203.142 6.494,242.200 1.034 C 245.030 0.638,255.881 1.147,258.400 1.793 M202.070 120.955 C 181.115 141.912,180.345 142.735,180.470 144.043 L 180.600 145.400 187.992 145.477 C 192.765 145.527,195.435 145.704,195.526 145.977 C 195.603 146.210,196.271 146.400,197.010 146.400 C 198.323 146.400,199.392 147.203,198.483 147.506 C 198.231 147.590,197.910 148.275,197.768 149.029 C 197.627 149.783,197.365 150.400,197.187 150.400 C 197.009 150.400,196.745 150.940,196.600 151.600 C 196.455 152.260,196.190 152.800,196.012 152.800 C 195.833 152.800,195.567 153.295,195.421 153.900 C 195.049 155.441,194.256 157.200,193.934 157.200 C 193.785 157.200,193.545 157.740,193.400 158.400 C 193.255 159.060,192.979 159.600,192.786 159.600 C 192.594 159.600,192.318 160.230,192.174 161.000 C 192.029 161.770,191.795 162.400,191.653 162.400 C 191.511 162.400,191.146 162.985,190.841 163.700 C 190.536 164.415,189.952 165.755,189.543 166.678 C 189.134 167.601,188.800 168.546,188.800 168.778 C 188.800 169.010,188.640 169.200,188.443 169.200 C 188.247 169.200,187.967 169.695,187.821 170.300 C 187.449 171.841,186.656 173.600,186.334 173.600 C 186.185 173.600,185.945 174.140,185.800 174.800 C 185.655 175.460,185.371 176.000,185.168 176.000 C 184.966 176.000,184.794 176.225,184.786 176.500 C 184.779 176.775,184.425 177.720,184.000 178.600 C 183.575 179.480,183.221 180.515,183.214 180.900 C 183.206 181.285,183.062 181.600,182.894 181.600 C 182.573 181.600,181.200 184.520,181.200 185.203 C 181.200 185.421,181.020 185.600,180.800 185.600 C 180.580 185.600,180.399 185.825,180.398 186.100 C 180.396 186.375,180.154 187.062,179.859 187.627 C 179.565 188.191,179.191 189.180,179.030 189.823 C 178.869 190.466,178.603 191.084,178.439 191.196 C 177.950 191.532,175.600 196.610,175.600 197.332 C 175.600 197.699,175.420 198.000,175.200 198.000 C 174.980 198.000,174.800 198.198,174.800 198.440 C 174.800 198.950,173.559 201.705,173.196 202.000 C 173.060 202.110,172.522 203.370,172.000 204.800 C 171.478 206.230,170.929 207.490,170.779 207.600 C 170.630 207.710,170.369 208.250,170.200 208.800 C 170.031 209.350,169.772 209.890,169.625 210.000 C 169.186 210.329,168.000 213.073,168.000 213.760 C 168.000 214.112,167.820 214.400,167.600 214.400 C 167.380 214.400,167.200 214.579,167.200 214.797 C 167.200 215.443,165.835 218.400,165.537 218.400 C 165.387 218.400,165.145 218.938,165.001 219.595 C 164.857 220.253,164.572 220.894,164.369 221.019 C 163.153 221.771,164.222 223.739,166.102 224.211 C 166.706 224.363,167.200 224.639,167.200 224.825 C 167.200 225.011,167.830 225.282,168.600 225.426 C 169.370 225.571,170.000 225.835,170.000 226.013 C 170.000 227.758,173.415 226.561,173.825 224.672 C 173.976 223.973,174.226 223.310,174.379 223.200 C 174.632 223.019,176.022 220.185,177.746 216.340 C 178.106 215.536,178.400 214.591,178.400 214.240 C 178.400 213.888,178.580 213.600,178.800 213.600 C 179.020 213.600,179.200 213.330,179.200 213.000 C 179.200 212.670,179.380 212.400,179.600 212.400 C 179.820 212.400,180.006 212.175,180.014 211.900 C 180.021 211.625,180.375 210.680,180.800 209.800 C 181.225 208.920,181.579 207.885,181.586 207.500 C 181.594 207.115,181.766 206.800,181.968 206.800 C 182.171 206.800,182.455 206.260,182.600 205.600 C 182.745 204.940,182.985 204.400,183.134 204.400 C 183.283 204.400,183.654 203.815,183.959 203.100 C 184.264 202.385,184.848 201.045,185.257 200.122 C 185.666 199.199,186.000 198.254,186.000 198.022 C 186.000 197.790,186.180 197.600,186.400 197.600 C 186.620 197.600,186.800 197.240,186.800 196.800 C 186.800 196.360,186.980 196.000,187.200 196.000 C 187.420 196.000,187.606 195.775,187.614 195.500 C 187.621 195.225,187.975 194.280,188.400 193.400 C 188.825 192.520,189.179 191.485,189.186 191.100 C 189.194 190.715,189.366 190.400,189.568 190.400 C 189.771 190.400,190.055 189.860,190.200 189.200 C 190.345 188.540,190.585 188.000,190.734 188.000 C 190.883 188.000,191.254 187.415,191.559 186.700 C 192.977 183.376,193.702 181.703,194.229 180.540 C 194.543 179.846,194.800 179.081,194.800 178.840 C 194.800 178.598,194.936 178.400,195.102 178.400 C 195.269 178.400,195.654 177.815,195.959 177.100 C 196.264 176.385,196.848 175.045,197.257 174.122 C 197.666 173.199,198.000 172.254,198.000 172.022 C 198.000 171.790,198.180 171.600,198.400 171.600 C 198.620 171.600,198.804 171.375,198.809 171.100 C 198.814 170.825,199.350 169.520,200.000 168.200 C 200.650 166.880,201.186 165.575,201.191 165.300 C 201.196 165.025,201.372 164.800,201.582 164.800 C 201.792 164.800,202.082 164.170,202.226 163.400 C 202.371 162.630,202.635 162.000,202.813 162.000 C 202.991 162.000,203.255 161.460,203.400 160.800 C 203.545 160.140,203.829 159.600,204.032 159.600 C 204.234 159.600,204.400 159.251,204.400 158.824 C 204.400 158.397,204.566 157.945,204.769 157.819 C 204.972 157.694,205.257 157.053,205.401 156.395 C 205.545 155.738,205.815 155.200,206.000 155.200 C 206.185 155.200,206.455 154.660,206.600 154.000 C 206.745 153.340,207.029 152.800,207.232 152.800 C 207.434 152.800,207.600 152.440,207.600 152.000 C 207.600 150.971,207.953 150.992,209.263 152.100 C 209.847 152.595,210.726 153.270,211.216 153.600 C 211.706 153.930,212.308 154.431,212.554 154.713 C 212.799 154.995,213.495 155.746,214.100 156.382 C 214.705 157.018,215.200 157.707,215.200 157.913 C 215.200 158.119,215.650 158.626,216.200 159.039 C 216.750 159.452,217.200 159.975,217.200 160.202 C 217.200 161.429,219.272 163.600,220.443 163.600 C 222.587 163.600,222.787 163.037,223.068 156.223 C 223.210 152.800,223.455 150.000,223.614 150.000 C 223.773 150.000,224.034 146.625,224.194 142.500 C 224.354 138.375,224.632 134.818,224.813 134.595 C 224.993 134.372,225.237 132.482,225.356 130.395 C 225.853 121.619,226.654 111.358,226.885 110.800 C 227.226 109.977,227.616 100.507,227.338 99.783 C 227.191 99.399,226.549 99.204,225.457 99.211 C 223.805 99.223,223.732 99.291,202.070 120.955 M57.653 101.559 C 57.055 101.937,57.375 112.214,57.996 112.598 C 58.165 112.702,58.433 115.041,58.592 117.795 C 58.751 120.549,59.024 122.891,59.200 123.000 C 59.376 123.109,59.649 125.451,59.808 128.205 C 59.967 130.959,60.255 133.310,60.448 133.430 C 60.642 133.549,60.800 134.807,60.800 136.224 C 60.800 137.641,60.960 138.800,61.155 138.800 C 61.351 138.800,61.641 141.142,61.800 144.004 C 61.959 146.866,62.231 149.296,62.404 149.403 C 62.578 149.510,62.849 151.851,63.008 154.605 C 63.167 157.359,63.455 159.710,63.648 159.830 C 63.842 159.949,64.000 160.991,64.000 162.144 C 64.000 164.678,64.450 165.200,66.637 165.200 C 68.131 165.200,68.343 165.081,68.588 164.104 C 68.740 163.501,68.993 162.916,69.152 162.804 C 69.311 162.692,70.062 161.706,70.821 160.614 C 74.531 155.272,78.932 151.870,79.397 153.984 C 79.543 154.653,79.815 155.200,80.000 155.200 C 80.185 155.200,80.455 155.740,80.600 156.400 C 80.745 157.060,81.029 157.600,81.232 157.600 C 81.434 157.600,81.600 157.870,81.600 158.200 C 81.600 158.530,81.760 158.800,81.955 158.800 C 82.151 158.800,82.427 159.417,82.568 160.171 C 82.710 160.925,82.955 161.600,83.113 161.671 C 83.271 161.742,84.026 163.060,84.791 164.600 C 85.557 166.140,86.322 167.460,86.491 167.533 C 86.661 167.607,86.800 167.857,86.800 168.090 C 86.800 168.522,88.435 172.039,88.803 172.400 C 88.916 172.510,89.366 173.320,89.804 174.200 C 90.242 175.080,90.721 175.892,90.868 176.004 C 91.016 176.116,91.260 176.701,91.412 177.304 C 91.563 177.907,91.847 178.400,92.043 178.400 C 92.240 178.400,92.400 178.579,92.400 178.797 C 92.400 179.443,93.765 182.400,94.063 182.400 C 94.213 182.400,94.455 182.940,94.600 183.600 C 94.745 184.260,95.015 184.800,95.200 184.800 C 95.385 184.800,95.655 185.340,95.800 186.000 C 95.945 186.660,96.229 187.200,96.432 187.200 C 96.634 187.200,96.800 187.379,96.800 187.597 C 96.800 188.243,98.165 191.200,98.463 191.200 C 98.613 191.200,98.855 191.740,99.000 192.400 C 99.145 193.060,99.410 193.600,99.588 193.600 C 99.767 193.600,100.037 194.093,100.188 194.696 C 100.340 195.299,100.584 195.884,100.732 195.996 C 100.879 196.108,101.900 198.000,103.000 200.200 C 104.100 202.400,105.121 204.292,105.268 204.404 C 105.416 204.516,105.660 205.101,105.812 205.704 C 105.963 206.307,106.247 206.800,106.443 206.800 C 106.640 206.800,106.800 207.070,106.800 207.400 C 106.800 207.730,106.980 208.000,107.200 208.000 C 107.420 208.000,107.606 208.225,107.614 208.500 C 107.621 208.775,107.975 209.720,108.400 210.600 C 108.825 211.480,109.179 212.425,109.186 212.700 C 109.194 212.975,109.366 213.200,109.568 213.200 C 109.771 213.200,110.055 213.740,110.200 214.400 C 110.345 215.060,110.629 215.600,110.832 215.600 C 111.034 215.600,111.200 215.870,111.200 216.200 C 111.200 216.530,111.380 216.800,111.600 216.800 C 111.820 216.800,112.000 217.011,112.000 217.268 C 112.000 217.845,114.428 222.922,114.839 223.204 C 115.003 223.316,115.260 223.901,115.412 224.504 C 115.563 225.107,115.847 225.600,116.043 225.600 C 116.240 225.600,116.400 225.893,116.400 226.250 C 116.400 226.943,118.715 226.771,119.180 226.044 C 119.301 225.855,119.985 225.574,120.700 225.418 C 121.415 225.263,122.000 224.985,122.000 224.800 C 122.000 224.615,122.540 224.345,123.200 224.200 C 123.860 224.055,124.400 223.771,124.400 223.568 C 124.400 223.366,124.670 223.200,125.000 223.200 C 125.891 223.200,125.728 221.974,124.621 220.344 C 124.082 219.552,123.522 218.430,123.377 217.851 C 123.232 217.273,122.967 216.800,122.788 216.800 C 122.610 216.800,122.345 216.260,122.200 215.600 C 122.055 214.940,121.785 214.400,121.600 214.400 C 121.415 214.400,121.145 213.860,121.000 213.200 C 120.855 212.540,120.571 212.000,120.368 212.000 C 120.166 212.000,120.000 211.730,120.000 211.400 C 120.000 211.070,119.828 210.800,119.618 210.800 C 119.408 210.800,119.118 210.170,118.974 209.400 C 118.829 208.630,118.565 208.000,118.387 208.000 C 118.209 208.000,117.945 207.460,117.800 206.800 C 117.655 206.140,117.416 205.598,117.268 205.596 C 117.121 205.594,116.645 204.784,116.210 203.796 C 115.776 202.808,115.281 202.000,115.110 202.000 C 114.940 202.000,114.800 201.782,114.800 201.515 C 114.800 201.005,111.231 193.544,110.822 193.200 C 110.692 193.090,109.695 191.200,108.608 189.000 C 107.520 186.800,106.503 184.908,106.347 184.796 C 106.191 184.684,105.940 184.099,105.788 183.496 C 105.637 182.893,105.367 182.400,105.188 182.400 C 105.010 182.400,104.745 181.860,104.600 181.200 C 104.455 180.540,104.171 180.000,103.968 180.000 C 103.766 180.000,103.600 179.640,103.600 179.200 C 103.600 178.760,103.434 178.400,103.232 178.400 C 103.029 178.400,102.745 177.860,102.600 177.200 C 102.455 176.540,102.185 176.000,102.000 176.000 C 101.815 176.000,101.545 175.460,101.400 174.800 C 101.255 174.140,100.985 173.600,100.800 173.600 C 100.615 173.600,100.345 173.060,100.200 172.400 C 100.055 171.740,99.813 171.200,99.663 171.200 C 99.373 171.200,98.000 168.252,98.000 167.631 C 98.000 167.430,97.865 167.207,97.700 167.133 C 97.535 167.060,96.776 165.740,96.014 164.200 C 95.251 162.660,94.511 161.310,94.368 161.200 C 94.225 161.090,93.981 160.595,93.827 160.100 C 93.672 159.605,93.398 159.200,93.218 159.200 C 93.037 159.200,92.771 158.570,92.626 157.800 C 92.482 157.030,92.206 156.400,92.014 156.400 C 91.821 156.400,91.545 155.860,91.400 155.200 C 91.255 154.540,90.971 154.000,90.768 154.000 C 90.566 154.000,90.400 153.730,90.400 153.400 C 90.400 153.070,90.240 152.800,90.043 152.800 C 89.847 152.800,89.563 152.307,89.412 151.704 C 89.260 151.101,88.993 150.516,88.819 150.404 C 88.644 150.292,88.375 149.623,88.222 148.917 L 87.944 147.635 89.981 147.365 C 91.101 147.216,92.115 146.938,92.233 146.747 C 92.351 146.556,95.297 146.400,98.781 146.400 C 105.662 146.400,105.604 146.420,105.597 144.067 C 105.594 143.297,105.078 142.555,103.739 141.400 C 102.719 140.520,100.554 138.509,98.929 136.930 C 97.303 135.352,95.145 133.372,94.132 132.530 C 93.120 131.689,90.995 129.740,89.410 128.200 C 87.825 126.660,85.418 124.410,84.060 123.200 C 82.702 121.990,80.535 120.010,79.245 118.800 C 74.834 114.664,69.002 109.281,67.045 107.540 C 65.969 106.583,64.404 105.099,63.567 104.243 C 60.869 101.483,59.065 100.664,57.653 101.559 M139.400 237.605 C 135.967 238.092,134.259 238.457,133.800 238.800 C 133.580 238.964,132.545 239.223,131.500 239.374 C 130.455 239.525,129.600 239.795,129.600 239.973 C 129.600 240.152,128.880 240.413,128.000 240.554 C 127.120 240.694,126.400 240.987,126.400 241.205 C 126.400 241.422,126.108 241.600,125.751 241.600 C 125.040 241.600,120.539 243.898,119.679 244.700 C 119.384 244.975,118.905 245.200,118.614 245.200 C 118.323 245.200,117.982 245.470,117.855 245.800 C 117.729 246.130,117.392 246.400,117.107 246.400 C 116.823 246.400,116.252 246.850,115.839 247.400 C 115.426 247.950,114.926 248.400,114.727 248.400 C 114.007 248.400,110.085 252.306,107.296 255.800 C 107.120 256.020,106.352 257.100,105.588 258.200 C 104.825 259.300,104.089 260.290,103.954 260.400 C 103.819 260.510,103.569 261.050,103.400 261.600 C 103.231 262.150,102.972 262.690,102.825 262.800 C 102.454 263.078,101.200 265.825,101.200 266.360 C 101.200 266.602,101.036 266.800,100.835 266.800 C 100.634 266.800,100.349 267.519,100.200 268.398 C 100.052 269.277,99.779 270.090,99.593 270.204 C 99.408 270.319,99.133 271.400,98.982 272.606 C 98.831 273.813,98.549 274.800,98.354 274.800 C 98.159 274.800,98.000 275.509,98.000 276.376 C 98.000 277.243,97.820 278.064,97.600 278.200 C 97.357 278.350,97.200 281.330,97.200 285.800 C 97.200 290.270,97.357 293.250,97.600 293.400 C 97.820 293.536,98.000 294.357,98.000 295.224 C 98.000 296.091,98.159 296.800,98.354 296.800 C 98.549 296.800,98.832 297.790,98.983 299.000 C 99.134 300.210,99.425 301.200,99.629 301.200 C 99.833 301.200,100.000 301.578,100.000 302.040 C 100.000 302.501,100.288 303.536,100.639 304.340 C 102.368 308.291,102.621 308.791,102.900 308.795 C 103.065 308.798,103.200 309.057,103.200 309.371 C 103.200 309.686,103.425 310.183,103.700 310.478 C 103.975 310.772,104.555 311.705,104.988 312.552 C 105.421 313.399,106.006 314.181,106.288 314.289 C 106.570 314.397,106.800 314.654,106.800 314.860 C 106.800 315.542,113.089 322.107,115.557 324.000 C 116.274 324.550,117.235 325.315,117.692 325.700 C 118.149 326.085,118.765 326.400,119.061 326.400 C 119.358 326.400,119.600 326.537,119.600 326.705 C 119.600 327.026,119.871 327.192,123.034 328.800 C 124.115 329.350,125.090 329.918,125.201 330.063 C 125.311 330.208,126.076 330.453,126.901 330.608 C 127.725 330.762,128.400 331.038,128.400 331.220 C 128.400 331.402,129.210 331.672,130.200 331.821 C 131.190 331.969,132.000 332.231,132.000 332.402 C 132.000 332.573,132.585 332.811,133.300 332.932 C 134.015 333.053,135.680 333.358,137.000 333.611 C 140.205 334.223,155.802 333.958,156.480 333.280 C 156.744 333.016,157.464 332.800,158.080 332.800 C 158.696 332.800,159.200 332.620,159.200 332.400 C 159.200 332.180,159.695 331.999,160.300 331.998 C 160.905 331.996,161.883 331.743,162.473 331.435 C 163.063 331.127,164.098 330.754,164.773 330.606 C 165.448 330.458,166.000 330.185,166.000 330.000 C 166.000 329.815,166.540 329.545,167.200 329.400 C 167.860 329.255,168.400 328.971,168.400 328.768 C 168.400 328.566,168.655 328.400,168.967 328.400 C 169.278 328.400,169.593 328.265,169.667 328.100 C 169.740 327.935,170.655 327.354,171.700 326.808 C 172.745 326.263,173.600 325.678,173.600 325.508 C 173.600 325.339,173.800 325.200,174.045 325.200 C 174.936 325.200,183.600 317.148,183.600 316.320 C 183.600 316.123,184.005 315.564,184.500 315.078 C 185.536 314.061,186.321 312.905,186.658 311.900 C 186.788 311.515,187.020 311.200,187.176 311.200 C 187.512 311.200,189.200 307.911,189.200 307.256 C 189.200 307.005,189.372 306.800,189.582 306.800 C 189.792 306.800,190.082 306.170,190.226 305.400 C 190.371 304.630,190.649 304.000,190.845 304.000 C 191.040 304.000,191.200 303.651,191.200 303.224 C 191.200 302.797,191.370 302.342,191.577 302.214 C 191.784 302.086,192.079 301.131,192.232 300.091 C 192.386 299.051,192.669 298.097,192.862 297.972 C 193.056 297.847,193.327 296.272,193.466 294.472 C 193.605 292.672,193.872 291.200,194.059 291.200 C 194.504 291.200,194.505 280.912,194.060 280.637 C 193.874 280.522,193.607 278.959,193.469 277.165 C 193.331 275.371,193.057 273.700,192.861 273.452 C 192.665 273.203,192.379 272.303,192.225 271.451 C 192.071 270.599,191.793 269.609,191.606 269.251 C 190.881 267.859,190.000 265.658,190.000 265.240 C 190.000 264.998,189.834 264.800,189.632 264.800 C 189.429 264.800,189.145 264.260,189.000 263.600 C 188.855 262.940,188.590 262.400,188.412 262.400 C 188.233 262.400,187.984 261.991,187.859 261.492 C 187.734 260.993,187.286 260.214,186.864 259.761 C 186.443 259.309,185.979 258.564,185.834 258.106 C 185.688 257.648,185.306 257.173,184.985 257.050 C 184.663 256.926,184.400 256.632,184.400 256.395 C 184.400 255.929,181.688 253.012,177.479 248.952 C 176.481 247.988,175.551 247.200,175.415 247.200 C 175.278 247.200,174.811 246.869,174.377 246.464 C 173.942 246.059,173.095 245.474,172.493 245.164 C 171.892 244.854,171.162 244.375,170.871 244.100 C 170.581 243.825,170.101 243.600,169.805 243.600 C 169.509 243.600,169.207 243.465,169.133 243.300 C 168.923 242.827,166.544 241.600,165.838 241.600 C 165.487 241.600,165.200 241.436,165.200 241.235 C 165.200 241.034,164.480 240.749,163.600 240.600 C 162.720 240.451,162.000 240.178,162.000 239.994 C 162.000 239.809,161.010 239.534,159.800 239.383 C 158.590 239.232,157.600 238.949,157.600 238.754 C 157.600 238.559,157.006 238.400,156.280 238.400 C 155.554 238.400,154.784 238.224,154.569 238.009 C 154.045 237.485,142.423 237.176,139.400 237.605 M155.800 239.541 C 156.460 239.772,158.513 240.432,160.362 241.006 C 192.615 251.023,203.655 292.689,180.622 317.474 C 174.091 324.501,167.703 328.402,157.600 331.532 C 144.014 335.741,125.910 331.308,114.061 320.871 C 98.094 306.808,93.620 280.386,104.279 263.108 C 104.786 262.287,105.200 261.506,105.200 261.371 C 105.200 260.791,110.881 253.634,112.656 251.977 C 120.016 245.108,129.413 240.425,138.600 239.049 C 140.801 238.720,154.583 239.113,155.800 239.541 M336.305 253.483 C 336.802 253.579,337.522 253.575,337.905 253.475 C 338.287 253.375,337.880 253.296,337.000 253.301 C 336.120 253.305,335.807 253.387,336.305 253.483 " stroke="none" fill="#80cbc4" fill-rule="evenodd"></path><path id="path1" d="M41.400 1.175 C 38.253 1.674,35.107 2.363,33.800 2.841 C 25.350 5.932,18.822 10.046,13.648 15.540 C 11.869 17.429,7.600 22.968,7.600 23.387 C 7.600 23.513,7.186 24.287,6.679 25.108 C -3.421 41.480,-0.303 65.542,13.842 80.376 C 43.189 111.151,95.201 90.428,95.200 47.960 C 95.200 25.304,80.515 7.299,57.400 1.613 C 55.005 1.024,44.218 0.729,41.400 1.175 M242.200 1.034 C 203.142 6.494,187.057 53.538,214.790 81.200 C 236.792 103.145,272.924 98.586,288.870 71.851 C 301.327 50.968,295.460 23.716,275.400 9.282 C 266.832 3.116,252.599 -0.420,242.200 1.034 M321.200 228.814 C 313.873 229.535,310.151 230.021,309.040 230.402 C 308.402 230.621,307.378 230.800,306.764 230.800 C 306.150 230.800,305.549 230.959,305.429 231.153 C 305.309 231.347,304.041 231.631,302.610 231.784 C 301.179 231.937,299.914 232.216,299.798 232.403 C 299.682 232.591,298.600 232.867,297.394 233.018 C 296.187 233.169,295.200 233.451,295.200 233.646 C 295.200 233.841,294.795 234.001,294.300 234.002 C 293.805 234.004,292.884 234.274,292.254 234.602 C 291.624 234.931,290.769 235.200,290.354 235.200 C 289.939 235.200,289.600 235.357,289.600 235.549 C 289.600 235.741,288.880 236.013,288.000 236.154 C 287.120 236.294,286.400 236.587,286.400 236.805 C 286.400 237.022,286.023 237.200,285.562 237.200 C 284.767 237.200,282.435 238.291,281.996 238.868 C 281.884 239.016,281.299 239.260,280.696 239.412 C 280.093 239.563,279.600 239.847,279.600 240.043 C 279.600 240.240,279.300 240.400,278.934 240.400 C 278.234 240.400,272.297 243.927,272.067 244.480 C 271.993 244.656,271.713 244.800,271.444 244.800 C 271.010 244.800,270.374 245.261,267.578 247.600 C 267.184 247.930,266.293 248.650,265.598 249.200 C 263.603 250.780,261.518 252.866,260.000 254.801 C 259.230 255.783,258.330 256.873,258.000 257.223 C 256.753 258.547,255.600 260.191,255.600 260.644 C 255.600 260.903,255.330 261.218,255.000 261.345 C 254.670 261.471,254.400 261.858,254.400 262.204 C 254.400 262.550,254.049 263.210,253.620 263.671 C 253.191 264.131,252.727 265.024,252.588 265.654 C 252.450 266.284,252.194 266.800,252.019 266.800 C 251.845 266.800,251.587 267.520,251.446 268.400 C 251.306 269.280,251.026 270.000,250.824 270.000 C 250.622 270.000,250.334 270.990,250.183 272.200 C 250.032 273.410,249.749 274.400,249.554 274.400 C 249.359 274.400,249.200 275.195,249.200 276.167 C 249.200 277.138,249.010 277.997,248.778 278.074 C 248.204 278.265,248.210 293.970,248.784 294.544 C 249.013 294.773,249.200 295.644,249.200 296.480 C 249.200 297.316,249.359 298.000,249.554 298.000 C 249.749 298.000,250.032 298.990,250.183 300.200 C 250.334 301.410,250.602 302.400,250.778 302.400 C 250.954 302.400,251.213 303.120,251.354 304.000 C 251.494 304.880,251.787 305.600,252.005 305.600 C 252.222 305.600,252.400 305.887,252.400 306.238 C 252.400 306.944,253.627 309.323,254.100 309.533 C 254.265 309.607,254.400 309.860,254.400 310.096 C 254.400 310.455,257.776 315.776,258.400 316.400 C 258.510 316.510,259.254 317.414,260.053 318.410 C 263.201 322.332,270.966 329.536,273.100 330.515 C 273.595 330.743,274.000 331.080,274.000 331.264 C 274.000 331.449,274.199 331.600,274.442 331.600 C 274.686 331.600,275.567 332.140,276.400 332.800 C 277.233 333.460,278.114 334.000,278.358 334.000 C 278.601 334.000,278.800 334.177,278.800 334.392 C 278.800 334.608,279.250 334.898,279.800 335.036 C 280.350 335.174,280.800 335.428,280.800 335.600 C 280.800 335.772,281.250 336.026,281.800 336.164 C 282.350 336.302,282.800 336.592,282.800 336.808 C 282.800 337.023,283.070 337.200,283.400 337.200 C 283.730 337.200,284.000 337.366,284.000 337.568 C 284.000 337.771,284.540 338.055,285.200 338.200 C 285.860 338.345,286.404 338.584,286.408 338.732 C 286.413 338.879,287.399 339.450,288.600 340.000 C 289.801 340.550,290.787 341.135,290.792 341.300 C 290.796 341.465,291.045 341.600,291.344 341.600 C 291.643 341.600,292.948 342.138,294.244 342.795 C 295.540 343.452,296.825 343.992,297.100 343.995 C 297.375 343.998,297.600 344.180,297.600 344.400 C 297.600 344.620,297.779 344.800,297.997 344.800 C 298.643 344.800,301.600 346.165,301.600 346.463 C 301.600 346.613,302.140 346.855,302.800 347.000 C 303.460 347.145,304.000 347.415,304.000 347.600 C 304.000 347.785,304.540 348.055,305.200 348.200 C 305.860 348.345,306.400 348.621,306.400 348.814 C 306.400 349.006,307.030 349.282,307.800 349.426 C 308.570 349.571,309.200 349.849,309.200 350.045 C 309.200 350.240,309.470 350.400,309.800 350.400 C 310.130 350.400,310.400 350.566,310.400 350.768 C 310.400 350.971,310.940 351.255,311.600 351.400 C 312.260 351.545,312.800 351.815,312.800 352.000 C 312.800 352.185,313.340 352.455,314.000 352.600 C 314.660 352.745,315.200 353.009,315.200 353.187 C 315.200 353.365,315.830 353.629,316.600 353.774 C 317.370 353.918,318.000 354.208,318.000 354.418 C 318.000 354.628,318.270 354.800,318.600 354.800 C 318.930 354.800,319.200 354.966,319.200 355.168 C 319.200 355.371,319.740 355.655,320.400 355.800 C 321.060 355.945,321.600 356.229,321.600 356.432 C 321.600 356.634,321.814 356.800,322.076 356.800 C 322.537 356.800,327.596 359.189,328.000 359.598 C 328.110 359.709,329.100 360.250,330.200 360.800 C 331.300 361.350,332.260 361.935,332.333 362.100 C 332.407 362.265,332.722 362.400,333.033 362.400 C 333.345 362.400,333.600 362.577,333.600 362.792 C 333.600 363.008,334.050 363.298,334.600 363.436 C 335.150 363.574,335.600 363.847,335.600 364.043 C 335.600 364.240,335.842 364.400,336.138 364.400 C 336.434 364.400,337.002 364.760,337.400 365.200 C 337.798 365.640,338.351 366.000,338.629 366.000 C 338.906 366.000,339.193 366.136,339.267 366.303 C 339.340 366.470,340.209 367.235,341.199 368.003 C 344.069 370.232,344.786 370.855,347.467 373.453 C 348.860 374.802,350.000 376.041,350.000 376.207 C 350.000 376.373,350.429 376.906,350.953 377.392 C 351.477 377.878,352.030 378.663,352.180 379.138 C 352.331 379.612,352.593 380.000,352.763 380.000 C 352.932 380.000,353.415 380.718,353.836 381.595 C 354.256 382.473,354.727 383.193,354.882 383.195 C 355.037 383.198,355.288 383.875,355.440 384.700 C 355.591 385.525,355.880 386.307,356.080 386.437 C 356.281 386.568,356.551 387.698,356.680 388.949 C 356.809 390.200,357.069 391.319,357.257 391.435 C 357.726 391.725,357.693 399.041,357.220 399.905 C 357.010 400.287,356.727 401.635,356.591 402.900 C 356.454 404.165,356.198 405.200,356.022 405.200 C 355.846 405.200,355.587 405.920,355.446 406.800 C 355.306 407.680,355.055 408.400,354.890 408.400 C 354.589 408.400,353.864 409.592,353.371 410.900 C 353.226 411.285,352.948 411.600,352.753 411.600 C 352.559 411.600,352.400 411.873,352.400 412.206 C 352.400 412.927,345.695 419.600,344.970 419.600 C 344.693 419.600,344.407 419.742,344.333 419.914 C 343.978 420.753,338.442 423.959,337.300 423.987 C 337.025 423.994,336.800 424.180,336.800 424.400 C 336.800 424.620,336.485 424.801,336.100 424.802 C 335.715 424.804,334.884 425.074,334.254 425.402 C 333.624 425.731,332.769 426.000,332.354 426.000 C 331.939 426.000,331.600 426.159,331.600 426.354 C 331.600 426.549,330.565 426.837,329.300 426.995 C 328.035 427.152,326.907 427.430,326.794 427.612 C 326.681 427.794,324.971 428.072,322.994 428.229 C 321.017 428.387,319.297 428.673,319.171 428.866 C 318.870 429.327,294.165 429.314,293.281 428.852 C 292.907 428.656,290.665 428.367,288.300 428.209 C 285.935 428.052,283.910 427.779,283.801 427.602 C 283.692 427.426,282.342 427.155,280.802 427.000 C 279.261 426.845,278.000 426.578,278.000 426.405 C 278.000 426.232,277.505 425.996,276.900 425.880 C 274.913 425.499,272.212 424.752,271.549 424.400 C 271.191 424.210,270.246 423.932,269.449 423.783 C 268.652 423.633,268.000 423.374,268.000 423.207 C 268.000 423.039,267.282 422.787,266.405 422.647 C 265.528 422.507,264.192 422.045,263.435 421.620 C 262.679 421.195,261.417 420.727,260.630 420.579 C 259.844 420.432,259.200 420.159,259.200 419.974 C 259.200 419.788,258.568 419.518,257.796 419.373 C 257.023 419.228,256.293 418.950,256.172 418.755 C 255.738 418.053,254.988 418.450,254.362 419.713 C 253.117 422.225,251.091 425.803,250.802 426.000 C 250.640 426.110,250.372 426.636,250.205 427.168 C 250.039 427.701,249.304 429.073,248.572 430.217 C 247.840 431.361,247.122 432.771,246.977 433.349 C 246.832 433.927,246.553 434.400,246.357 434.400 C 246.160 434.400,246.000 434.655,246.000 434.967 C 246.000 435.278,245.865 435.593,245.700 435.667 C 245.535 435.740,244.950 436.697,244.400 437.793 C 243.850 438.889,243.175 440.027,242.900 440.321 C 242.138 441.138,242.301 441.977,243.300 442.379 C 246.338 443.600,246.800 443.820,246.800 444.053 C 246.800 444.195,247.422 444.428,248.183 444.570 C 248.944 444.713,250.069 445.092,250.683 445.412 C 251.297 445.733,252.205 445.996,252.700 445.998 C 253.195 445.999,253.600 446.160,253.600 446.355 C 253.600 446.550,254.436 446.835,255.459 446.988 C 256.481 447.141,257.651 447.432,258.059 447.633 C 258.466 447.835,259.144 448.172,259.565 448.382 C 259.986 448.591,261.246 448.885,262.365 449.033 C 263.484 449.182,264.400 449.437,264.400 449.600 C 264.400 449.763,265.660 450.021,267.200 450.173 C 268.740 450.324,270.000 450.602,270.000 450.790 C 270.000 450.978,271.350 451.258,273.000 451.413 C 274.650 451.567,276.000 451.836,276.000 452.010 C 276.000 452.184,276.945 452.425,278.100 452.546 C 279.255 452.668,281.460 452.954,283.000 453.182 C 290.922 454.357,335.480 454.006,335.933 452.765 C 336.007 452.564,336.952 452.400,338.033 452.400 C 339.115 452.400,340.000 452.238,340.000 452.041 C 340.000 451.843,341.261 451.555,342.802 451.400 C 344.342 451.245,345.690 450.978,345.796 450.806 C 345.903 450.634,346.982 450.370,348.195 450.218 C 349.408 450.066,350.400 449.800,350.400 449.626 C 350.400 449.451,351.206 449.198,352.191 449.063 C 353.176 448.928,354.301 448.649,354.691 448.442 C 356.441 447.516,358.390 446.800,359.160 446.800 C 359.622 446.800,360.000 446.636,360.000 446.435 C 360.000 446.234,360.720 445.949,361.600 445.800 C 362.480 445.651,363.200 445.366,363.200 445.165 C 363.200 444.964,363.420 444.800,363.688 444.800 C 364.167 444.800,371.606 441.231,372.000 440.813 C 372.110 440.696,372.875 440.257,373.700 439.837 C 374.525 439.417,375.200 438.922,375.200 438.737 C 375.200 438.552,375.387 438.400,375.616 438.400 C 376.008 438.400,378.050 437.080,379.019 436.200 C 379.261 435.980,380.061 435.350,380.797 434.800 C 382.978 433.169,390.319 425.686,390.597 424.809 C 390.738 424.364,391.026 424.000,391.237 424.000 C 391.447 424.000,391.795 423.595,392.009 423.100 C 392.433 422.120,393.270 420.718,393.621 420.400 C 393.977 420.078,395.200 417.320,395.200 416.840 C 395.200 416.598,395.366 416.400,395.568 416.400 C 395.771 416.400,396.055 415.860,396.200 415.200 C 396.345 414.540,396.606 414.000,396.781 414.000 C 396.955 414.000,397.219 413.244,397.366 412.320 C 397.514 411.396,397.770 410.451,397.934 410.220 C 400.216 407.016,400.876 384.539,398.827 379.800 C 398.637 379.360,398.193 378.343,397.841 377.540 C 397.488 376.736,397.200 375.802,397.200 375.463 C 397.200 375.124,397.034 374.745,396.831 374.619 C 396.628 374.494,396.343 373.853,396.199 373.195 C 396.055 372.538,395.790 372.000,395.612 372.000 C 395.433 372.000,395.174 371.550,395.036 371.000 C 394.898 370.450,394.608 370.000,394.392 370.000 C 394.177 370.000,394.000 369.745,394.000 369.433 C 394.000 369.122,393.865 368.807,393.700 368.733 C 393.535 368.660,392.954 367.745,392.408 366.700 C 391.863 365.655,391.278 364.800,391.108 364.800 C 390.939 364.800,390.800 364.611,390.800 364.381 C 390.800 364.150,390.350 363.545,389.800 363.035 C 389.250 362.525,388.800 361.936,388.800 361.725 C 388.800 361.301,382.045 354.400,381.630 354.400 C 381.487 354.400,380.411 353.500,379.239 352.400 C 378.068 351.300,376.976 350.400,376.813 350.400 C 376.650 350.400,376.068 349.995,375.520 349.500 C 373.643 347.805,372.226 346.800,371.713 346.800 C 371.431 346.800,371.200 346.614,371.200 346.387 C 371.200 346.161,370.885 345.859,370.500 345.717 C 370.115 345.575,369.243 345.041,368.562 344.529 C 367.881 344.018,367.131 343.600,366.896 343.600 C 366.660 343.600,366.407 343.465,366.333 343.300 C 366.260 343.135,365.300 342.550,364.200 342.000 C 363.100 341.450,362.110 340.910,362.000 340.800 C 361.890 340.690,360.540 339.970,359.000 339.200 C 357.460 338.430,356.110 337.693,356.000 337.562 C 355.890 337.430,355.305 337.202,354.700 337.054 C 354.095 336.906,353.600 336.608,353.600 336.392 C 353.600 336.177,353.240 336.000,352.800 336.000 C 352.360 336.000,352.000 335.862,352.000 335.693 C 352.000 335.524,350.875 334.946,349.500 334.408 C 348.125 333.870,346.910 333.332,346.800 333.211 C 346.690 333.091,345.970 332.696,345.200 332.335 C 344.430 331.973,342.672 331.120,341.294 330.439 C 339.916 329.757,338.431 329.200,337.994 329.200 C 337.557 329.200,337.200 329.020,337.200 328.800 C 337.200 328.580,336.945 328.400,336.633 328.400 C 336.322 328.400,336.007 328.265,335.933 328.100 C 335.774 327.741,331.594 326.000,330.892 326.000 C 330.622 326.000,330.400 325.820,330.400 325.600 C 330.400 325.380,330.175 325.197,329.900 325.192 C 329.625 325.188,327.780 324.379,325.800 323.395 C 323.820 322.411,321.885 321.604,321.500 321.603 C 321.115 321.601,320.800 321.434,320.800 321.232 C 320.800 321.029,320.260 320.745,319.600 320.600 C 318.940 320.455,318.400 320.171,318.400 319.968 C 318.400 319.766,318.145 319.600,317.833 319.600 C 317.522 319.600,317.207 319.465,317.133 319.300 C 317.060 319.135,316.103 318.550,315.007 318.000 C 313.911 317.450,312.773 316.775,312.479 316.500 C 312.184 316.225,311.686 316.000,311.371 316.000 C 311.057 316.000,310.800 315.841,310.800 315.647 C 310.800 315.452,310.485 315.188,310.100 315.058 C 309.104 314.724,307.855 313.885,307.480 313.300 C 307.304 313.025,306.942 312.800,306.676 312.800 C 306.410 312.800,305.707 312.350,305.113 311.800 C 304.520 311.250,303.942 310.800,303.829 310.800 C 303.468 310.800,295.600 302.838,295.600 302.473 C 295.600 302.281,295.240 301.798,294.800 301.400 C 294.360 301.002,294.000 300.434,294.000 300.138 C 294.000 299.842,293.820 299.600,293.600 299.600 C 293.380 299.600,293.200 299.330,293.200 299.000 C 293.200 298.670,293.023 298.400,292.808 298.400 C 292.592 298.400,292.294 297.917,292.146 297.327 C 291.998 296.736,291.635 295.791,291.341 295.227 C 291.046 294.662,290.804 293.831,290.802 293.380 C 290.801 292.929,290.623 292.383,290.407 292.167 C 289.807 291.567,289.479 282.932,289.952 280.200 C 290.605 276.429,291.332 273.600,291.647 273.600 C 291.806 273.600,292.055 273.060,292.200 272.400 C 292.345 271.740,292.629 271.200,292.832 271.200 C 293.034 271.200,293.200 271.007,293.200 270.771 C 293.200 270.536,293.425 270.092,293.700 269.785 C 294.829 268.526,295.201 268.018,295.210 267.717 C 295.237 266.904,302.091 261.200,303.041 261.200 C 303.152 261.200,303.905 260.750,304.714 260.200 C 305.523 259.650,306.504 259.200,306.893 259.200 C 307.282 259.200,307.600 259.034,307.600 258.832 C 307.600 258.629,308.138 258.345,308.795 258.201 C 309.453 258.057,310.094 257.772,310.219 257.569 C 310.345 257.366,310.797 257.200,311.224 257.200 C 311.651 257.200,312.000 257.037,312.000 256.838 C 312.000 256.638,312.900 256.351,314.000 256.200 C 315.099 256.049,316.089 255.780,316.199 255.602 C 316.309 255.424,317.524 255.151,318.899 254.995 C 320.275 254.839,321.601 254.549,321.847 254.351 C 323.131 253.315,352.109 253.328,353.358 254.366 C 353.601 254.567,355.109 254.861,356.709 255.019 C 358.309 255.176,359.706 255.447,359.813 255.621 C 359.921 255.795,361.177 256.062,362.604 256.215 C 364.032 256.368,365.200 256.652,365.200 256.847 C 365.200 257.041,365.639 257.200,366.176 257.200 C 366.713 257.200,367.251 257.359,367.371 257.554 C 367.492 257.748,368.403 258.030,369.397 258.179 C 370.391 258.328,371.698 258.707,372.302 259.022 C 372.906 259.337,373.805 259.596,374.300 259.598 C 374.795 259.599,375.201 259.735,375.201 259.900 C 375.202 260.065,376.057 260.528,377.101 260.929 C 378.146 261.329,379.322 261.830,379.716 262.042 C 380.539 262.484,381.328 261.886,381.774 260.481 C 381.928 259.997,382.207 259.600,382.395 259.600 C 382.583 259.600,382.855 259.060,383.000 258.400 C 383.145 257.740,383.426 257.200,383.624 257.200 C 383.822 257.200,384.098 256.750,384.236 256.200 C 384.374 255.650,384.602 255.198,384.743 255.195 C 384.885 255.193,385.359 254.428,385.797 253.495 C 386.236 252.563,386.821 251.562,387.097 251.271 C 387.374 250.981,387.600 250.486,387.600 250.171 C 387.600 249.857,387.760 249.600,387.957 249.600 C 388.153 249.600,388.430 249.135,388.573 248.566 C 388.716 247.997,389.192 247.146,389.632 246.674 C 390.071 246.202,390.534 245.407,390.659 244.908 C 390.784 244.409,391.033 244.000,391.212 244.000 C 391.390 244.000,391.655 243.460,391.800 242.800 C 391.945 242.140,392.217 241.600,392.405 241.600 C 392.918 241.600,393.288 240.108,393.000 239.200 C 392.838 238.689,392.395 238.400,391.773 238.400 C 391.238 238.400,390.800 238.222,390.800 238.005 C 390.800 237.787,390.080 237.494,389.200 237.354 C 388.320 237.213,387.600 236.952,387.600 236.773 C 387.600 236.595,386.790 236.328,385.800 236.179 C 384.810 236.031,384.000 235.750,384.000 235.555 C 384.000 235.360,383.561 235.200,383.024 235.200 C 382.487 235.200,381.944 235.033,381.817 234.828 C 381.691 234.623,380.598 234.332,379.388 234.181 C 378.179 234.030,377.096 233.756,376.983 233.572 C 376.869 233.388,375.701 233.115,374.388 232.967 C 373.075 232.818,372.000 232.561,372.000 232.395 C 372.000 232.229,370.785 231.965,369.300 231.807 C 367.815 231.650,366.420 231.378,366.200 231.204 C 365.794 230.881,365.010 230.757,358.600 230.001 C 356.620 229.768,354.190 229.386,353.200 229.152 C 350.954 228.622,325.846 228.357,321.200 228.814 M138.600 239.049 C 129.413 240.425,120.016 245.108,112.656 251.977 C 110.881 253.634,105.200 260.791,105.200 261.371 C 105.200 261.506,104.786 262.287,104.279 263.108 C 93.620 280.386,98.094 306.808,114.061 320.871 C 125.910 331.308,144.014 335.741,157.600 331.532 C 167.703 328.402,174.091 324.501,180.622 317.474 C 203.655 292.689,192.615 251.023,160.362 241.006 C 158.513 240.432,156.460 239.772,155.800 239.541 C 154.583 239.113,140.801 238.720,138.600 239.049 " stroke="none" fill="#e5ffff" fill-rule="evenodd"></path></g></svg>