<?xml version="1.0" standalone="no"?><!-- Generator: Gravit.io --><svg xmlns="http://www.w3.org/2000/svg" xmlns:xlink="http://www.w3.org/1999/xlink" style="isolation:isolate" viewBox="0 0 400 454.173" width="400" height="454.173"><defs><clipPath id="_clipPath_0zP4wP4Okz4AjDp0MUkgav4bWHn7BwRT"><rect width="400" height="454.173"/></clipPath></defs><g clip-path="url(#_clipPath_0zP4wP4Okz4AjDp0MUkgav4bWHn7BwRT)"><rect width="400" height="454.173" style="fill:rgb(39,42,42)"/><path d=" M 56.831 27.461 C 55.571 27.641 54.389 27.938 54.205 28.122 C 54.02 28.306 53.515 28.457 53.08 28.457 C 52.646 28.457 52.2 28.602 52.091 28.779 C 51.981 28.956 51.258 29.208 50.484 29.338 C 49.709 29.47 49.075 29.721 49.075 29.898 C 49.075 30.075 48.908 30.22 48.703 30.22 C 47.521 30.22 41.035 34.041 38.852 36.023 C 37.566 37.191 33.89 40.886 32.804 42.103 C 30.603 44.567 26.866 50.833 26.866 52.057 C 26.866 52.262 26.721 52.429 26.544 52.429 C 26.367 52.429 26.116 53.063 25.984 53.838 C 25.854 54.612 25.602 55.335 25.425 55.445 C 25.248 55.555 25.103 56.031 25.103 56.505 C 25.103 56.978 24.965 57.365 24.796 57.365 C 23.375 57.365 23.362 79.654 24.783 81.143 C 24.959 81.327 25.103 81.833 25.103 82.268 C 25.103 82.702 25.249 83.148 25.428 83.259 C 25.607 83.369 25.86 83.945 25.99 84.538 C 26.121 85.13 26.449 86.041 26.72 86.561 C 26.992 87.081 27.215 87.705 27.216 87.947 C 27.217 88.189 27.364 88.388 27.543 88.388 C 27.721 88.388 27.972 88.864 28.1 89.445 C 28.227 90.027 28.478 90.503 28.657 90.503 C 28.835 90.503 28.981 90.741 28.981 91.032 C 28.981 91.323 29.129 91.561 29.31 91.561 C 29.49 91.561 29.748 91.905 29.882 92.326 C 30.142 93.145 30.372 93.472 31.889 95.165 C 32.422 95.761 32.859 96.381 32.859 96.545 C 32.859 96.923 37.74 101.783 38.829 102.489 C 39.277 102.78 39.85 103.216 40.103 103.459 C 40.357 103.701 40.717 103.899 40.904 103.899 C 41.091 103.899 41.335 104.137 41.447 104.428 C 41.558 104.719 41.893 104.957 42.189 104.957 C 42.486 104.957 42.73 105.113 42.73 105.302 C 42.73 105.493 43.126 105.748 43.611 105.87 C 44.096 105.992 44.492 106.22 44.492 106.378 C 44.492 106.534 44.968 106.768 45.55 106.896 C 46.132 107.024 46.608 107.274 46.608 107.453 C 46.608 107.631 46.925 107.777 47.313 107.777 C 47.7 107.777 48.018 107.936 48.018 108.13 C 48.018 108.324 48.216 108.483 48.458 108.484 C 48.701 108.486 49.342 108.718 49.883 109 C 50.425 109.282 51.418 109.616 52.09 109.743 C 52.763 109.869 53.395 110.104 53.494 110.264 C 53.593 110.425 54.781 110.665 56.134 110.798 C 57.487 110.932 58.594 111.166 58.594 111.318 C 58.594 111.588 60.557 111.824 66.085 112.219 C 67.921 112.35 68.817 112.29 68.817 112.034 C 68.817 111.8 69.758 111.655 71.285 111.655 C 72.642 111.655 73.753 111.519 73.753 111.353 C 73.753 111.186 74.735 110.947 75.937 110.822 C 77.137 110.697 78.208 110.456 78.316 110.286 C 78.424 110.117 79.185 109.866 80.008 109.728 C 80.832 109.591 81.583 109.351 81.679 109.197 C 81.775 109.042 82.41 108.81 83.091 108.682 C 83.772 108.554 84.329 108.331 84.329 108.186 C 84.329 108.041 85.043 107.627 85.915 107.268 C 86.788 106.907 87.501 106.494 87.501 106.348 C 87.501 106.203 87.938 105.911 88.471 105.702 C 89.701 105.217 90.591 104.636 91.639 103.635 C 92.096 103.199 92.594 102.842 92.746 102.842 C 93.161 102.842 98.074 97.949 99.479 96.137 C 100.152 95.268 100.806 94.478 100.933 94.381 C 101.059 94.284 101.494 93.583 101.899 92.823 C 102.304 92.063 102.76 91.349 102.913 91.236 C 103.388 90.885 104.423 88.835 104.423 88.245 C 104.423 87.936 104.575 87.683 104.76 87.683 C 104.945 87.683 105.2 87.127 105.327 86.449 C 105.455 85.77 105.686 85.215 105.841 85.215 C 105.997 85.215 106.231 84.581 106.362 83.807 C 106.492 83.032 106.745 82.309 106.922 82.199 C 107.099 82.09 107.243 81.547 107.243 80.993 C 107.243 80.439 107.388 79.933 107.564 79.868 C 108.352 79.58 109.362 66.324 108.699 64.965 C 108.505 64.565 108.243 63.011 108.118 61.51 C 107.992 60.008 107.743 58.69 107.566 58.58 C 107.389 58.471 107.243 58.003 107.243 57.541 C 107.243 57.079 107.099 56.612 106.922 56.503 C 106.745 56.393 106.492 55.67 106.362 54.895 C 106.231 54.121 106 53.487 105.847 53.487 C 105.695 53.487 105.472 52.866 105.35 52.107 C 105.229 51.347 105.01 50.673 104.865 50.608 C 104.718 50.543 104.322 49.975 103.982 49.345 C 103.643 48.714 103.088 47.683 102.749 47.053 C 102.409 46.423 102.051 45.828 101.952 45.731 C 101.853 45.634 101.377 44.961 100.894 44.236 C 100.411 43.509 99.897 42.914 99.752 42.914 C 99.607 42.912 99.488 42.733 99.488 42.515 C 99.488 41.711 91.288 34.098 90.422 34.098 C 90.173 34.098 89.969 33.942 89.969 33.752 C 89.969 33.562 89.573 33.306 89.088 33.184 C 88.603 33.063 88.207 32.822 88.207 32.65 C 88.207 32.476 87.982 32.335 87.707 32.335 C 87.433 32.335 87.155 32.216 87.09 32.07 C 86.941 31.735 83.855 30.22 83.32 30.22 C 83.099 30.22 82.919 30.075 82.919 29.898 C 82.919 29.721 82.284 29.47 81.508 29.338 C 80.733 29.207 80.098 28.973 80.098 28.818 C 80.098 28.527 79.903 28.475 75.515 27.601 C 72.506 27.002 60.669 26.913 56.831 27.461 Z  M 233.098 27.461 C 231.838 27.641 230.656 27.938 230.472 28.122 C 230.287 28.306 229.772 28.457 229.326 28.457 C 228.88 28.457 228.515 28.595 228.515 28.765 C 228.515 28.934 227.881 29.174 227.105 29.298 C 226.329 29.421 225.695 29.662 225.695 29.832 C 225.695 30.002 225.14 30.245 224.461 30.373 C 223.782 30.5 223.227 30.743 223.227 30.912 C 223.227 31.082 222.751 31.326 222.169 31.454 C 221.588 31.581 221.112 31.832 221.112 32.011 C 221.112 32.189 220.874 32.335 220.583 32.335 C 220.292 32.335 220.054 32.491 220.054 32.68 C 220.054 32.871 219.658 33.126 219.173 33.248 C 218.688 33.37 218.287 33.57 218.282 33.695 C 218.277 33.82 217.642 34.31 216.872 34.785 C 216.101 35.261 215.471 35.776 215.471 35.931 C 215.471 36.086 215.318 36.213 215.13 36.213 C 214.657 36.213 209.759 41.092 208.934 42.383 C 208.564 42.965 208.059 43.567 207.813 43.722 C 207.565 43.877 207.363 44.234 207.363 44.515 C 207.363 44.796 207.229 45.026 207.066 45.026 C 206.903 45.026 206.467 45.618 206.097 46.343 C 205.726 47.067 205.226 47.871 204.983 48.13 C 204.741 48.39 204.543 48.828 204.543 49.106 C 204.543 49.383 204.402 49.609 204.228 49.609 C 204.055 49.609 203.809 50.045 203.68 50.578 C 203.36 51.904 202.656 53.487 202.386 53.487 C 202.265 53.487 202.058 54.157 201.927 54.975 C 201.797 55.792 201.544 56.552 201.366 56.662 C 201.187 56.773 200.933 57.809 200.8 58.964 C 200.667 60.121 200.384 61.179 200.17 61.318 C 199.632 61.668 199.632 76.681 200.17 77.032 C 200.384 77.17 200.668 78.233 200.801 79.394 C 200.934 80.554 201.196 81.657 201.383 81.844 C 201.57 82.031 201.723 82.508 201.724 82.906 C 201.726 83.303 201.964 84.083 202.253 84.639 C 202.543 85.194 202.78 85.868 202.78 86.137 C 202.78 86.406 202.939 86.625 203.133 86.625 C 203.327 86.625 203.486 86.823 203.487 87.066 C 203.488 87.457 203.868 88.252 205.858 92.027 C 206.147 92.575 206.603 93.107 206.873 93.21 C 207.143 93.314 207.363 93.621 207.363 93.893 C 207.363 94.165 207.68 94.659 208.068 94.992 C 208.456 95.324 208.773 95.737 208.773 95.911 C 208.773 96.372 215.284 102.842 215.749 102.842 C 215.965 102.842 216.268 103.055 216.423 103.315 C 216.578 103.575 217.181 104.087 217.763 104.453 C 218.344 104.818 218.9 105.2 218.997 105.301 C 219.094 105.403 219.966 105.882 220.936 106.367 C 221.905 106.852 222.778 107.336 222.875 107.443 C 223.216 107.82 225.632 108.835 226.188 108.835 C 226.499 108.835 226.752 108.984 226.752 109.165 C 226.752 109.348 227.466 109.603 228.339 109.735 C 229.211 109.865 229.925 110.1 229.925 110.257 C 229.925 110.413 230.959 110.652 232.222 110.787 C 233.485 110.923 234.604 111.173 234.71 111.344 C 234.816 111.515 235.915 111.655 237.152 111.655 C 238.39 111.655 239.5 111.814 239.62 112.008 C 239.904 112.468 244.977 112.468 245.26 112.008 C 245.38 111.814 246.5 111.655 247.749 111.655 C 248.998 111.655 250.02 111.517 250.02 111.348 C 250.02 111.179 251.13 110.931 252.487 110.797 C 253.845 110.664 254.955 110.424 254.955 110.263 C 254.955 110.103 255.669 109.865 256.542 109.735 C 257.414 109.603 258.128 109.365 258.128 109.205 C 258.128 109.044 258.683 108.809 259.362 108.681 C 260.04 108.554 260.597 108.339 260.6 108.202 C 260.602 108.065 261.276 107.639 262.098 107.254 C 262.92 106.868 263.672 106.472 263.768 106.372 C 263.865 106.273 264.698 105.798 265.619 105.316 C 266.54 104.836 267.294 104.321 267.294 104.171 C 267.294 104.022 267.439 103.899 267.616 103.899 C 268.263 103.899 275.389 97.317 275.398 96.713 C 275.4 96.541 275.799 96.033 276.283 95.584 C 276.768 95.134 277.165 94.626 277.165 94.452 C 277.165 94.279 277.562 93.677 278.048 93.113 C 278.534 92.55 279.031 91.772 279.153 91.384 C 279.276 90.997 279.473 90.6 279.592 90.503 C 279.933 90.226 281.395 87.122 281.395 86.674 C 281.395 86.453 281.554 86.273 281.748 86.273 C 281.942 86.273 282.1 86.053 282.1 85.784 C 282.1 85.515 282.337 84.841 282.627 84.286 C 282.916 83.731 283.154 82.951 283.156 82.553 C 283.157 82.156 283.316 81.673 283.509 81.48 C 283.701 81.288 283.962 80.146 284.087 78.942 C 284.213 77.739 284.437 76.754 284.584 76.754 C 284.732 76.754 284.939 75.207 285.046 73.317 C 285.151 71.426 285.248 69.721 285.261 69.527 C 285.344 68.184 284.777 61.948 284.572 61.948 C 284.43 61.948 284.213 60.963 284.087 59.76 C 283.962 58.556 283.701 57.414 283.509 57.222 C 283.316 57.029 283.157 56.546 283.156 56.149 C 283.154 55.751 282.916 54.971 282.627 54.416 C 282.337 53.861 282.1 53.186 282.1 52.918 C 282.1 52.649 281.949 52.429 281.764 52.429 C 281.578 52.429 281.323 51.874 281.196 51.195 C 281.068 50.517 280.836 49.962 280.679 49.962 C 280.522 49.962 280.289 49.486 280.161 48.904 C 280.034 48.322 279.802 47.846 279.646 47.846 C 279.49 47.846 279.269 47.569 279.155 47.229 C 278.86 46.352 278.121 45.251 277.605 44.92 C 277.363 44.765 277.165 44.476 277.165 44.279 C 277.165 44.08 276.966 43.708 276.724 43.451 C 276.482 43.195 275.887 42.475 275.402 41.852 C 273.794 39.784 270.842 36.918 270.322 36.918 C 270.04 36.918 269.718 36.632 269.607 36.282 C 269.496 35.933 268.776 35.259 268.007 34.784 C 267.237 34.31 266.604 33.802 266.598 33.657 C 266.593 33.511 266.362 33.392 266.086 33.392 C 265.808 33.392 265.372 33.194 265.116 32.951 C 264.86 32.709 264.015 32.193 263.24 31.805 C 262.464 31.418 261.778 30.987 261.716 30.848 C 261.653 30.709 261.058 30.493 260.394 30.368 C 259.729 30.243 259.186 30.014 259.186 29.859 C 259.186 29.703 258.552 29.47 257.777 29.338 C 257.002 29.208 256.28 28.956 256.17 28.779 C 256.06 28.602 255.584 28.457 255.11 28.457 C 254.637 28.457 254.25 28.32 254.25 28.15 C 254.25 27.204 238.5 26.69 233.098 27.461 Z  M 74.281 28.468 C 112.163 37.788 119.98 85.709 86.816 105.316 C 52.904 125.364 12.315 89.563 27.655 53.134 C 28.267 51.68 29.133 49.899 29.579 49.175 C 30.026 48.452 30.391 47.77 30.391 47.659 C 30.391 47.289 34.153 42.408 35.721 40.743 C 40.281 35.901 46.035 32.275 53.482 29.551 C 54.634 29.129 57.407 28.522 60.18 28.082 C 62.664 27.689 72.171 27.949 74.281 28.468 Z  M 251.43 28.627 C 256.984 30.051 262.75 32.591 266.412 35.227 C 284.092 47.949 289.263 71.967 278.284 90.372 C 264.23 113.934 232.386 117.952 212.995 98.611 C 188.553 74.232 202.729 32.77 237.152 27.958 C 239.646 27.609 249.21 28.058 251.43 28.627 Z  M 201.784 133.649 C 183.316 152.119 182.637 152.844 182.747 153.997 L 182.862 155.193 L 189.377 155.261 C 193.583 155.305 195.937 155.461 196.017 155.701 C 196.085 155.907 196.673 156.074 197.325 156.074 C 198.482 156.074 199.424 156.782 198.623 157.049 C 198.401 157.123 198.118 157.727 197.993 158.391 C 197.868 159.056 197.638 159.6 197.481 159.6 C 197.324 159.6 197.091 160.076 196.963 160.657 C 196.835 161.239 196.602 161.715 196.445 161.715 C 196.287 161.715 196.053 162.151 195.924 162.684 C 195.596 164.042 194.897 165.593 194.614 165.593 C 194.482 165.593 194.271 166.069 194.143 166.65 C 194.015 167.232 193.772 167.708 193.602 167.708 C 193.433 167.708 193.189 168.263 193.062 168.942 C 192.935 169.62 192.728 170.176 192.603 170.176 C 192.478 170.176 192.156 170.691 191.888 171.321 C 191.619 171.952 191.104 173.133 190.744 173.946 C 190.383 174.759 190.089 175.592 190.089 175.797 C 190.089 176.001 189.948 176.169 189.774 176.169 C 189.601 176.169 189.355 176.605 189.226 177.138 C 188.898 178.496 188.199 180.047 187.915 180.047 C 187.784 180.047 187.573 180.523 187.445 181.104 C 187.317 181.686 187.067 182.162 186.888 182.162 C 186.71 182.162 186.558 182.36 186.551 182.602 C 186.545 182.845 186.233 183.678 185.858 184.453 C 185.484 185.229 185.172 186.141 185.166 186.48 C 185.159 186.82 185.032 187.097 184.884 187.097 C 184.601 187.097 183.391 189.671 183.391 190.273 C 183.391 190.465 183.232 190.623 183.038 190.623 C 182.844 190.623 182.685 190.821 182.684 191.063 C 182.682 191.306 182.469 191.911 182.209 192.409 C 181.95 192.906 181.62 193.778 181.478 194.344 C 181.336 194.911 181.102 195.456 180.957 195.555 C 180.526 195.851 178.455 200.326 178.455 200.962 C 178.455 201.286 178.297 201.551 178.103 201.551 C 177.909 201.551 177.75 201.726 177.75 201.939 C 177.75 202.388 176.656 204.817 176.337 205.077 C 176.217 205.173 175.743 206.284 175.282 207.544 C 174.822 208.805 174.339 209.915 174.206 210.012 C 174.075 210.109 173.845 210.585 173.696 211.07 C 173.547 211.554 173.319 212.03 173.189 212.127 C 172.802 212.417 171.757 214.836 171.757 215.441 C 171.757 215.751 171.598 216.005 171.405 216.005 C 171.211 216.005 171.052 216.163 171.052 216.355 C 171.052 216.924 169.849 219.53 169.586 219.53 C 169.454 219.53 169.241 220.005 169.114 220.584 C 168.987 221.164 168.736 221.728 168.557 221.839 C 167.485 222.501 168.427 224.236 170.084 224.652 C 170.617 224.786 171.052 225.029 171.052 225.193 C 171.052 225.357 171.607 225.596 172.286 225.723 C 172.965 225.85 173.52 226.083 173.52 226.24 C 173.52 227.778 176.53 226.723 176.891 225.058 C 177.024 224.442 177.244 223.858 177.379 223.761 C 177.602 223.601 178.827 221.104 180.347 217.715 C 180.664 217.006 180.923 216.173 180.923 215.864 C 180.923 215.554 181.082 215.3 181.276 215.3 C 181.469 215.3 181.628 215.062 181.628 214.771 C 181.628 214.48 181.787 214.242 181.981 214.242 C 182.174 214.242 182.338 214.044 182.345 213.802 C 182.352 213.559 182.664 212.726 183.038 211.951 C 183.413 211.175 183.725 210.263 183.731 209.924 C 183.738 209.585 183.89 209.307 184.068 209.307 C 184.247 209.307 184.497 208.831 184.625 208.249 C 184.752 207.668 184.964 207.192 185.095 207.192 C 185.227 207.192 185.554 206.676 185.822 206.046 C 186.091 205.416 186.606 204.235 186.966 203.421 C 187.327 202.608 187.621 201.775 187.621 201.571 C 187.621 201.366 187.78 201.199 187.974 201.199 C 188.168 201.199 188.326 200.881 188.326 200.494 C 188.326 200.106 188.485 199.789 188.679 199.789 C 188.873 199.789 189.037 199.59 189.044 199.348 C 189.05 199.105 189.362 198.273 189.736 197.497 C 190.111 196.721 190.423 195.809 190.429 195.47 C 190.436 195.131 190.588 194.853 190.766 194.853 C 190.945 194.853 191.195 194.377 191.323 193.795 C 191.451 193.214 191.662 192.738 191.793 192.738 C 191.925 192.738 192.252 192.222 192.52 191.592 C 193.77 188.663 194.409 187.188 194.874 186.163 C 195.15 185.551 195.377 184.877 195.377 184.665 C 195.377 184.452 195.497 184.277 195.643 184.277 C 195.79 184.277 196.13 183.761 196.398 183.131 C 196.667 182.501 197.182 181.32 197.542 180.507 C 197.903 179.693 198.197 178.86 198.197 178.656 C 198.197 178.451 198.356 178.284 198.55 178.284 C 198.744 178.284 198.906 178.086 198.91 177.843 C 198.915 177.601 199.387 176.451 199.96 175.287 C 200.533 174.124 201.005 172.974 201.009 172.732 C 201.014 172.489 201.169 172.291 201.354 172.291 C 201.539 172.291 201.795 171.736 201.922 171.057 C 202.049 170.378 202.282 169.823 202.439 169.823 C 202.596 169.823 202.829 169.347 202.956 168.766 C 203.084 168.184 203.334 167.708 203.513 167.708 C 203.691 167.708 203.838 167.4 203.838 167.024 C 203.838 166.648 203.984 166.249 204.163 166.138 C 204.342 166.028 204.593 165.463 204.72 164.883 C 204.847 164.304 205.085 163.83 205.248 163.83 C 205.411 163.83 205.649 163.354 205.777 162.772 C 205.904 162.191 206.155 161.715 206.334 161.715 C 206.512 161.715 206.658 161.398 206.658 161.01 C 206.658 160.103 206.969 160.121 208.124 161.098 C 208.638 161.534 209.413 162.129 209.845 162.42 C 210.277 162.711 210.807 163.152 211.024 163.401 C 211.24 163.649 211.853 164.311 212.387 164.872 C 212.92 165.432 213.356 166.04 213.356 166.221 C 213.356 166.403 213.753 166.849 214.237 167.213 C 214.722 167.577 215.119 168.038 215.119 168.238 C 215.119 169.32 216.945 171.233 217.977 171.233 C 219.867 171.233 220.043 170.737 220.29 164.732 C 220.416 161.715 220.632 159.247 220.772 159.247 C 220.912 159.247 221.142 156.273 221.283 152.637 C 221.424 149.002 221.669 145.867 221.828 145.67 C 221.987 145.474 222.202 143.808 222.307 141.969 C 222.745 134.234 223.451 125.191 223.655 124.699 C 223.955 123.973 224.299 115.627 224.054 114.989 C 223.924 114.651 223.358 114.479 222.396 114.485 C 220.94 114.496 220.876 114.555 201.784 133.649 Z  M 74.504 116.554 C 73.977 116.887 74.259 125.945 74.807 126.283 C 74.956 126.375 75.192 128.437 75.332 130.864 C 75.472 133.291 75.713 135.355 75.868 135.451 C 76.023 135.547 76.264 137.611 76.404 140.038 C 76.544 142.466 76.798 144.538 76.968 144.643 C 77.139 144.748 77.278 145.857 77.278 147.106 C 77.278 148.355 77.419 149.376 77.591 149.376 C 77.764 149.376 78.019 151.44 78.159 153.963 C 78.299 156.485 78.539 158.627 78.692 158.721 C 78.845 158.815 79.084 160.878 79.224 163.306 C 79.364 165.733 79.618 167.805 79.788 167.911 C 79.959 168.015 80.098 168.934 80.098 169.95 C 80.098 172.183 80.495 172.643 82.422 172.643 C 83.739 172.643 83.926 172.539 84.142 171.677 C 84.276 171.146 84.499 170.63 84.639 170.532 C 84.779 170.433 85.441 169.564 86.11 168.602 C 89.38 163.893 93.258 160.895 93.668 162.758 C 93.797 163.348 94.037 163.83 94.2 163.83 C 94.363 163.83 94.601 164.306 94.728 164.888 C 94.856 165.469 95.107 165.945 95.285 165.945 C 95.463 165.945 95.61 166.183 95.61 166.474 C 95.61 166.765 95.751 167.003 95.923 167.003 C 96.095 167.003 96.339 167.547 96.463 168.211 C 96.588 168.876 96.804 169.471 96.943 169.533 C 97.082 169.596 97.748 170.757 98.422 172.115 C 99.097 173.472 99.771 174.635 99.92 174.7 C 100.07 174.765 100.193 174.985 100.193 175.19 C 100.193 175.571 101.634 178.671 101.958 178.989 C 102.058 179.086 102.454 179.8 102.84 180.575 C 103.226 181.351 103.648 182.067 103.778 182.165 C 103.908 182.264 104.123 182.78 104.257 183.311 C 104.391 183.843 104.641 184.277 104.814 184.277 C 104.987 184.277 105.128 184.435 105.128 184.627 C 105.128 185.196 106.331 187.802 106.594 187.802 C 106.726 187.802 106.939 188.278 107.067 188.86 C 107.195 189.442 107.433 189.918 107.596 189.918 C 107.759 189.918 107.997 190.393 108.125 190.975 C 108.253 191.557 108.503 192.033 108.682 192.033 C 108.86 192.033 109.006 192.191 109.006 192.383 C 109.006 192.952 110.209 195.558 110.472 195.558 C 110.604 195.558 110.817 196.034 110.945 196.616 C 111.073 197.197 111.306 197.673 111.463 197.673 C 111.621 197.673 111.859 198.108 111.992 198.639 C 112.126 199.171 112.341 199.686 112.471 199.785 C 112.601 199.884 113.501 201.551 114.47 203.49 C 115.44 205.429 116.34 207.097 116.469 207.195 C 116.6 207.294 116.815 207.81 116.949 208.341 C 117.082 208.872 117.332 209.307 117.505 209.307 C 117.678 209.307 117.819 209.545 117.819 209.836 C 117.819 210.127 117.978 210.365 118.172 210.365 C 118.366 210.365 118.53 210.563 118.537 210.805 C 118.543 211.048 118.855 211.88 119.23 212.656 C 119.604 213.432 119.916 214.264 119.922 214.507 C 119.929 214.749 120.081 214.947 120.259 214.947 C 120.438 214.947 120.688 215.423 120.816 216.005 C 120.944 216.587 121.194 217.063 121.373 217.063 C 121.551 217.063 121.697 217.301 121.697 217.591 C 121.697 217.882 121.856 218.12 122.05 218.12 C 122.244 218.12 122.402 218.306 122.402 218.533 C 122.402 219.041 124.542 223.516 124.904 223.764 C 125.049 223.863 125.275 224.379 125.409 224.91 C 125.543 225.442 125.793 225.876 125.966 225.876 C 126.139 225.876 126.28 226.134 126.28 226.449 C 126.28 227.06 128.321 226.908 128.73 226.267 C 128.837 226.101 129.44 225.853 130.07 225.716 C 130.7 225.579 131.216 225.334 131.216 225.171 C 131.216 225.008 131.692 224.77 132.273 224.642 C 132.855 224.514 133.331 224.264 133.331 224.085 C 133.331 223.907 133.569 223.761 133.86 223.761 C 134.645 223.761 134.501 222.68 133.526 221.244 C 133.051 220.546 132.557 219.557 132.429 219.047 C 132.302 218.537 132.068 218.12 131.91 218.12 C 131.753 218.12 131.52 217.644 131.392 217.063 C 131.264 216.481 131.026 216.005 130.863 216.005 C 130.7 216.005 130.462 215.529 130.334 214.947 C 130.207 214.366 129.956 213.89 129.777 213.89 C 129.599 213.89 129.453 213.652 129.453 213.361 C 129.453 213.07 129.301 212.832 129.116 212.832 C 128.931 212.832 128.676 212.277 128.549 211.598 C 128.421 210.92 128.188 210.365 128.031 210.365 C 127.875 210.365 127.642 209.889 127.514 209.307 C 127.386 208.725 127.176 208.248 127.045 208.246 C 126.916 208.244 126.496 207.53 126.113 206.659 C 125.73 205.789 125.294 205.077 125.143 205.077 C 124.993 205.077 124.87 204.884 124.87 204.649 C 124.87 204.2 121.725 197.624 121.364 197.321 C 121.25 197.224 120.371 195.558 119.413 193.619 C 118.454 191.68 117.558 190.013 117.42 189.914 C 117.283 189.815 117.061 189.3 116.927 188.768 C 116.794 188.237 116.556 187.802 116.399 187.802 C 116.242 187.802 116.008 187.326 115.88 186.745 C 115.753 186.163 115.502 185.687 115.323 185.687 C 115.145 185.687 114.999 185.37 114.999 184.982 C 114.999 184.594 114.853 184.277 114.675 184.277 C 114.496 184.277 114.246 183.801 114.118 183.219 C 113.99 182.638 113.752 182.162 113.589 182.162 C 113.426 182.162 113.188 181.686 113.06 181.104 C 112.932 180.523 112.694 180.047 112.531 180.047 C 112.368 180.047 112.13 179.571 112.003 178.989 C 111.875 178.407 111.662 177.931 111.529 177.931 C 111.274 177.931 110.064 175.333 110.064 174.786 C 110.064 174.609 109.945 174.412 109.799 174.347 C 109.654 174.283 108.985 173.119 108.313 171.762 C 107.641 170.405 106.989 169.215 106.863 169.118 C 106.737 169.021 106.522 168.585 106.386 168.149 C 106.249 167.712 106.008 167.355 105.849 167.355 C 105.69 167.355 105.455 166.8 105.327 166.122 C 105.2 165.443 104.957 164.888 104.788 164.888 C 104.618 164.888 104.375 164.412 104.247 163.83 C 104.119 163.248 103.869 162.772 103.69 162.772 C 103.512 162.772 103.366 162.534 103.366 162.244 C 103.366 161.953 103.224 161.715 103.051 161.715 C 102.878 161.715 102.628 161.28 102.495 160.749 C 102.361 160.217 102.125 159.702 101.972 159.603 C 101.818 159.504 101.581 158.915 101.446 158.293 L 101.201 157.163 L 102.996 156.925 C 103.983 156.793 104.877 156.548 104.981 156.38 C 105.085 156.212 107.681 156.074 110.752 156.074 C 116.816 156.074 116.765 156.092 116.759 154.018 C 116.757 153.34 116.302 152.686 115.122 151.668 C 114.223 150.892 112.315 149.12 110.882 147.728 C 109.449 146.337 107.547 144.592 106.655 143.85 C 105.763 143.109 103.89 141.391 102.493 140.034 C 101.096 138.677 98.975 136.694 97.778 135.627 C 96.581 134.561 94.671 132.816 93.534 131.749 C 89.647 128.104 84.507 123.36 82.782 121.826 C 81.834 120.982 80.454 119.674 79.717 118.92 C 77.339 116.487 75.749 115.766 74.504 116.554 Z  M 146.551 236.456 C 143.525 236.886 142.02 237.207 141.615 237.51 C 141.422 237.654 140.509 237.882 139.588 238.016 C 138.667 238.149 137.914 238.387 137.914 238.543 C 137.914 238.701 137.279 238.931 136.504 239.055 C 135.728 239.179 135.094 239.437 135.094 239.629 C 135.094 239.82 134.836 239.977 134.522 239.977 C 133.895 239.977 129.928 242.003 129.17 242.71 C 128.91 242.952 128.488 243.15 128.231 243.15 C 127.975 243.15 127.674 243.388 127.563 243.679 C 127.452 243.97 127.155 244.208 126.903 244.208 C 126.653 244.208 126.15 244.604 125.786 245.089 C 125.422 245.574 124.981 245.97 124.806 245.97 C 124.171 245.97 120.715 249.413 118.257 252.492 C 118.101 252.686 117.425 253.638 116.751 254.608 C 116.079 255.577 115.43 256.45 115.311 256.546 C 115.192 256.643 114.972 257.119 114.823 257.604 C 114.674 258.089 114.446 258.565 114.316 258.662 C 113.989 258.907 112.884 261.328 112.884 261.799 C 112.884 262.013 112.739 262.187 112.562 262.187 C 112.385 262.187 112.134 262.821 112.003 263.595 C 111.872 264.37 111.632 265.087 111.468 265.187 C 111.305 265.288 111.062 266.241 110.929 267.304 C 110.796 268.368 110.548 269.238 110.376 269.238 C 110.204 269.238 110.064 269.863 110.064 270.627 C 110.064 271.391 109.905 272.114 109.711 272.234 C 109.497 272.366 109.359 274.993 109.359 278.932 C 109.359 282.872 109.497 285.498 109.711 285.631 C 109.905 285.75 110.064 286.474 110.064 287.238 C 110.064 288.002 110.204 288.627 110.376 288.627 C 110.548 288.627 110.797 289.5 110.93 290.566 C 111.063 291.632 111.32 292.505 111.499 292.505 C 111.679 292.505 111.826 292.838 111.826 293.245 C 111.826 293.652 112.08 294.564 112.39 295.272 C 113.913 298.754 114.136 299.195 114.382 299.199 C 114.528 299.201 114.647 299.43 114.647 299.706 C 114.647 299.984 114.845 300.422 115.087 300.682 C 115.33 300.941 115.841 301.763 116.222 302.51 C 116.604 303.256 117.12 303.946 117.368 304.041 C 117.617 304.136 117.819 304.362 117.819 304.544 C 117.819 305.145 123.362 310.931 125.537 312.599 C 126.169 313.084 127.016 313.758 127.419 314.098 C 127.822 314.437 128.365 314.715 128.625 314.715 C 128.887 314.715 129.1 314.835 129.1 314.983 C 129.1 315.266 129.339 315.413 132.127 316.83 C 133.08 317.315 133.939 317.815 134.037 317.943 C 134.134 318.071 134.808 318.287 135.535 318.423 C 136.261 318.559 136.856 318.802 136.856 318.963 C 136.856 319.123 137.57 319.361 138.443 319.492 C 139.315 319.623 140.029 319.854 140.029 320.004 C 140.029 320.155 140.545 320.365 141.175 320.471 C 141.805 320.578 143.272 320.847 144.436 321.07 C 147.26 321.609 161.007 321.376 161.604 320.778 C 161.837 320.545 162.471 320.355 163.014 320.355 C 163.557 320.355 164.001 320.196 164.001 320.003 C 164.001 319.809 164.438 319.649 164.971 319.648 C 165.504 319.647 166.366 319.424 166.886 319.152 C 167.406 318.881 168.318 318.552 168.913 318.421 C 169.508 318.291 169.994 318.05 169.994 317.887 C 169.994 317.724 170.47 317.486 171.052 317.359 C 171.634 317.231 172.11 316.98 172.11 316.802 C 172.11 316.624 172.334 316.477 172.609 316.477 C 172.883 316.477 173.161 316.358 173.226 316.213 C 173.291 316.067 174.097 315.555 175.018 315.074 C 175.939 314.594 176.693 314.078 176.693 313.928 C 176.693 313.779 176.869 313.657 177.085 313.657 C 177.87 313.657 185.506 306.56 185.506 305.831 C 185.506 305.657 185.863 305.164 186.299 304.736 C 187.212 303.84 187.904 302.821 188.201 301.935 C 188.316 301.596 188.52 301.318 188.658 301.318 C 188.954 301.318 190.441 298.42 190.441 297.842 C 190.441 297.621 190.593 297.44 190.778 297.44 C 190.963 297.44 191.219 296.885 191.346 296.207 C 191.473 295.528 191.718 294.973 191.891 294.973 C 192.063 294.973 192.204 294.665 192.204 294.289 C 192.204 293.912 192.354 293.511 192.536 293.399 C 192.719 293.286 192.979 292.444 193.114 291.528 C 193.249 290.611 193.499 289.77 193.669 289.66 C 193.84 289.55 194.079 288.162 194.201 286.575 C 194.324 284.989 194.559 283.692 194.724 283.692 C 195.116 283.692 195.117 274.624 194.725 274.382 C 194.561 274.281 194.325 272.903 194.204 271.322 C 194.082 269.741 193.841 268.268 193.668 268.05 C 193.495 267.83 193.243 267.037 193.107 266.286 C 192.972 265.535 192.727 264.663 192.562 264.347 C 191.923 263.12 191.146 261.181 191.146 260.812 C 191.146 260.599 191 260.424 190.822 260.424 C 190.643 260.424 190.393 259.948 190.265 259.367 C 190.137 258.785 189.904 258.309 189.747 258.309 C 189.589 258.309 189.37 257.949 189.26 257.509 C 189.149 257.069 188.755 256.383 188.383 255.983 C 188.012 255.585 187.603 254.928 187.475 254.525 C 187.346 254.121 187.009 253.702 186.727 253.594 C 186.443 253.485 186.211 253.226 186.211 253.017 C 186.211 252.606 183.821 250.035 180.111 246.457 C 179.232 245.607 178.412 244.913 178.292 244.913 C 178.171 244.913 177.76 244.621 177.377 244.264 C 176.994 243.907 176.248 243.392 175.717 243.118 C 175.187 242.845 174.544 242.423 174.287 242.181 C 174.032 241.938 173.609 241.74 173.348 241.74 C 173.087 241.74 172.821 241.621 172.756 241.476 C 172.571 241.059 170.474 239.977 169.852 239.977 C 169.542 239.977 169.289 239.833 169.289 239.656 C 169.289 239.479 168.655 239.227 167.879 239.096 C 167.104 238.965 166.469 238.724 166.469 238.562 C 166.469 238.399 165.597 238.157 164.53 238.023 C 163.464 237.89 162.591 237.641 162.591 237.469 C 162.591 237.297 162.068 237.157 161.428 237.157 C 160.788 237.157 160.109 237.002 159.92 236.813 C 159.458 236.351 149.215 236.078 146.551 236.456 Z  M 161.005 238.163 C 161.586 238.366 163.396 238.948 165.025 239.454 C 193.451 248.282 203.181 285.004 182.881 306.848 C 177.125 313.041 171.495 316.479 162.591 319.238 C 150.617 322.947 134.662 319.04 124.219 309.842 C 110.147 297.447 106.203 274.161 115.598 258.933 C 116.044 258.21 116.409 257.521 116.409 257.402 C 116.409 256.891 121.416 250.583 122.981 249.123 C 129.467 243.069 137.749 238.942 145.846 237.729 C 147.786 237.439 159.932 237.785 161.005 238.163 Z  M 320.09 250.45 C 320.528 250.535 321.163 250.531 321.5 250.443 C 321.837 250.355 321.478 250.285 320.703 250.29 C 319.927 250.293 319.651 250.366 320.09 250.45 Z " fill-rule="evenodd" fill="rgb(119,189,199)"/><path d=" M 60.18 28.082 C 57.407 28.522 54.634 29.129 53.482 29.551 C 46.035 32.275 40.281 35.901 35.721 40.743 C 34.153 42.408 30.391 47.289 30.391 47.659 C 30.391 47.77 30.026 48.452 29.579 49.175 C 20.678 63.605 23.426 84.811 35.892 97.885 C 61.757 125.008 107.597 106.744 107.596 69.316 C 107.596 49.348 94.654 33.48 74.281 28.468 C 72.171 27.949 62.664 27.689 60.18 28.082 Z  M 237.152 27.958 C 202.729 32.77 188.553 74.232 212.995 98.611 C 232.386 117.952 264.23 113.934 278.284 90.372 C 289.263 71.967 284.092 47.949 266.412 35.227 C 258.861 29.793 246.317 26.677 237.152 27.958 Z  M 306.778 228.709 C 300.32 229.344 297.04 229.772 296.061 230.108 C 295.498 230.301 294.596 230.459 294.055 230.459 C 293.514 230.459 292.984 230.599 292.878 230.77 C 292.772 230.941 291.655 231.191 290.394 231.326 C 289.132 231.461 288.018 231.707 287.915 231.872 C 287.813 232.037 286.859 232.281 285.797 232.414 C 284.733 232.547 283.863 232.795 283.863 232.967 C 283.863 233.139 283.506 233.28 283.07 233.281 C 282.633 233.283 281.822 233.521 281.266 233.81 C 280.711 234.1 279.958 234.337 279.592 234.337 C 279.226 234.337 278.927 234.475 278.927 234.644 C 278.927 234.814 278.293 235.053 277.517 235.178 C 276.742 235.301 276.107 235.559 276.107 235.751 C 276.107 235.943 275.775 236.1 275.369 236.1 C 274.668 236.1 272.613 237.061 272.226 237.57 C 272.127 237.7 271.611 237.915 271.08 238.049 C 270.549 238.182 270.114 238.432 270.114 238.605 C 270.114 238.779 269.85 238.92 269.527 238.92 C 268.91 238.92 263.678 242.028 263.475 242.516 C 263.41 242.671 263.163 242.798 262.926 242.798 C 262.543 242.798 261.983 243.204 259.519 245.265 C 259.171 245.556 258.386 246.191 257.774 246.676 C 256.015 248.068 254.178 249.906 252.84 251.612 C 252.161 252.477 251.368 253.438 251.077 253.746 C 249.978 254.913 248.962 256.362 248.962 256.762 C 248.962 256.99 248.724 257.267 248.433 257.379 C 248.142 257.49 247.904 257.831 247.904 258.136 C 247.904 258.441 247.595 259.023 247.217 259.429 C 246.839 259.835 246.43 260.622 246.307 261.177 C 246.186 261.732 245.96 262.187 245.806 262.187 C 245.653 262.187 245.425 262.822 245.301 263.597 C 245.178 264.373 244.931 265.007 244.753 265.007 C 244.575 265.007 244.321 265.88 244.188 266.946 C 244.055 268.013 243.805 268.885 243.633 268.885 C 243.462 268.885 243.322 269.586 243.322 270.442 C 243.322 271.298 243.154 272.055 242.95 272.123 C 242.444 272.292 242.449 286.133 242.955 286.639 C 243.157 286.841 243.322 287.608 243.322 288.345 C 243.322 289.082 243.462 289.685 243.633 289.685 C 243.805 289.685 244.055 290.557 244.188 291.624 C 244.321 292.69 244.557 293.563 244.712 293.563 C 244.867 293.563 245.096 294.197 245.22 294.973 C 245.343 295.748 245.602 296.383 245.794 296.383 C 245.985 296.383 246.142 296.636 246.142 296.945 C 246.142 297.567 247.223 299.664 247.64 299.849 C 247.785 299.914 247.904 300.137 247.904 300.345 C 247.904 300.662 250.88 305.351 251.43 305.901 C 251.527 305.998 252.182 306.795 252.887 307.673 C 255.661 311.129 262.505 317.478 264.385 318.341 C 264.822 318.542 265.179 318.839 265.179 319.001 C 265.179 319.164 265.354 319.298 265.568 319.298 C 265.783 319.298 266.56 319.773 267.294 320.355 C 268.028 320.937 268.804 321.413 269.019 321.413 C 269.234 321.413 269.409 321.569 269.409 321.758 C 269.409 321.949 269.806 322.204 270.29 322.326 C 270.775 322.447 271.172 322.671 271.172 322.823 C 271.172 322.974 271.568 323.198 272.053 323.32 C 272.538 323.442 272.934 323.697 272.934 323.888 C 272.934 324.077 273.172 324.233 273.463 324.233 C 273.754 324.233 273.992 324.379 273.992 324.557 C 273.992 324.736 274.468 324.987 275.05 325.114 C 275.631 325.242 276.111 325.453 276.114 325.583 C 276.119 325.713 276.988 326.216 278.046 326.701 C 279.105 327.185 279.974 327.701 279.978 327.846 C 279.982 327.992 280.201 328.111 280.464 328.111 C 280.728 328.111 281.878 328.585 283.02 329.164 C 284.163 329.743 285.295 330.219 285.537 330.222 C 285.78 330.224 285.978 330.385 285.978 330.579 C 285.978 330.773 286.136 330.931 286.328 330.931 C 286.897 330.931 289.503 332.134 289.503 332.397 C 289.503 332.529 289.979 332.742 290.561 332.87 C 291.143 332.998 291.619 333.236 291.619 333.399 C 291.619 333.562 292.095 333.8 292.676 333.928 C 293.258 334.055 293.734 334.299 293.734 334.469 C 293.734 334.638 294.289 334.881 294.968 335.008 C 295.646 335.136 296.202 335.381 296.202 335.554 C 296.202 335.726 296.44 335.867 296.73 335.867 C 297.021 335.867 297.259 336.013 297.259 336.191 C 297.259 336.37 297.735 336.62 298.317 336.748 C 298.898 336.876 299.374 337.114 299.374 337.277 C 299.374 337.44 299.85 337.678 300.432 337.806 C 301.014 337.933 301.49 338.166 301.49 338.323 C 301.49 338.48 302.045 338.712 302.723 338.84 C 303.402 338.967 303.957 339.223 303.957 339.408 C 303.957 339.593 304.195 339.744 304.486 339.744 C 304.777 339.744 305.015 339.891 305.015 340.069 C 305.015 340.248 305.491 340.498 306.073 340.626 C 306.654 340.754 307.13 341.004 307.13 341.183 C 307.13 341.361 307.319 341.507 307.55 341.507 C 307.956 341.507 312.415 343.613 312.771 343.973 C 312.868 344.071 313.74 344.548 314.71 345.033 C 315.679 345.517 316.525 346.033 316.59 346.178 C 316.655 346.324 316.932 346.443 317.206 346.443 C 317.481 346.443 317.706 346.599 317.706 346.788 C 317.706 346.978 318.103 347.234 318.588 347.356 C 319.072 347.477 319.469 347.718 319.469 347.891 C 319.469 348.064 319.682 348.205 319.943 348.205 C 320.204 348.205 320.704 348.523 321.055 348.91 C 321.406 349.298 321.893 349.615 322.138 349.615 C 322.383 349.615 322.635 349.735 322.701 349.882 C 322.765 350.03 323.531 350.704 324.403 351.381 C 326.933 353.345 327.565 353.894 329.928 356.184 C 331.155 357.373 332.16 358.465 332.16 358.611 C 332.16 358.758 332.538 359.227 333 359.656 C 333.462 360.084 333.949 360.776 334.081 361.194 C 334.214 361.612 334.445 361.954 334.595 361.954 C 334.744 361.954 335.17 362.587 335.541 363.36 C 335.911 364.134 336.326 364.768 336.463 364.77 C 336.599 364.773 336.821 365.369 336.955 366.096 C 337.088 366.824 337.342 367.513 337.519 367.627 C 337.696 367.743 337.934 368.739 338.047 369.841 C 338.161 370.944 338.39 371.93 338.556 372.032 C 338.969 372.288 338.94 378.736 338.523 379.497 C 338.338 379.834 338.089 381.022 337.969 382.137 C 337.848 383.252 337.623 384.164 337.467 384.164 C 337.312 384.164 337.084 384.798 336.96 385.574 C 336.836 386.349 336.615 386.984 336.47 386.984 C 336.205 386.984 335.566 388.035 335.131 389.187 C 335.003 389.527 334.758 389.804 334.586 389.804 C 334.415 389.804 334.275 390.045 334.275 390.338 C 334.275 390.974 328.366 396.855 327.727 396.855 C 327.483 396.855 327.231 396.98 327.166 397.132 C 326.853 397.871 321.974 400.697 320.967 400.721 C 320.725 400.728 320.526 400.892 320.526 401.085 C 320.526 401.279 320.249 401.439 319.91 401.44 C 319.57 401.441 318.838 401.679 318.283 401.968 C 317.727 402.258 316.974 402.496 316.608 402.496 C 316.242 402.496 315.944 402.636 315.944 402.808 C 315.944 402.979 315.031 403.233 313.916 403.372 C 312.802 403.511 311.807 403.756 311.708 403.916 C 311.608 404.077 310.101 404.322 308.359 404.46 C 306.616 404.599 305.1 404.851 304.989 405.021 C 304.724 405.428 282.951 405.416 282.172 405.009 C 281.842 404.836 279.866 404.582 277.782 404.442 C 275.697 404.304 273.913 404.063 273.817 403.907 C 273.721 403.752 272.531 403.513 271.173 403.377 C 269.815 403.24 268.704 403.005 268.704 402.852 C 268.704 402.7 268.268 402.492 267.734 402.39 C 265.983 402.054 263.603 401.396 263.018 401.085 C 262.703 400.918 261.87 400.673 261.168 400.542 C 260.465 400.409 259.891 400.181 259.891 400.034 C 259.891 399.886 259.258 399.664 258.485 399.54 C 257.712 399.417 256.534 399.01 255.867 398.635 C 255.201 398.261 254.089 397.848 253.395 397.718 C 252.702 397.588 252.135 397.348 252.135 397.185 C 252.135 397.021 251.578 396.783 250.897 396.655 C 250.216 396.527 249.573 396.282 249.466 396.11 C 249.084 395.492 248.423 395.841 247.871 396.955 C 246.774 399.168 244.988 402.322 244.733 402.496 C 244.591 402.592 244.354 403.056 244.207 403.525 C 244.061 403.995 243.413 405.204 242.768 406.212 C 242.123 407.22 241.49 408.463 241.362 408.972 C 241.235 409.482 240.989 409.899 240.816 409.899 C 240.642 409.899 240.501 410.123 240.501 410.398 C 240.501 410.673 240.382 410.95 240.237 411.015 C 240.091 411.08 239.576 411.923 239.091 412.889 C 238.606 413.855 238.011 414.858 237.769 415.117 C 237.098 415.837 237.241 416.577 238.122 416.931 C 240.799 418.007 241.206 418.201 241.206 418.406 C 241.206 418.531 241.754 418.737 242.425 418.862 C 243.096 418.988 244.087 419.322 244.629 419.604 C 245.17 419.887 245.97 420.119 246.406 420.12 C 246.842 420.121 247.199 420.263 247.199 420.435 C 247.199 420.607 247.936 420.858 248.838 420.993 C 249.739 421.128 250.77 421.384 251.129 421.561 C 251.488 421.739 252.085 422.036 252.457 422.222 C 252.828 422.406 253.938 422.665 254.924 422.795 C 255.91 422.927 256.718 423.151 256.718 423.295 C 256.718 423.439 257.828 423.666 259.186 423.8 C 260.543 423.933 261.653 424.178 261.653 424.344 C 261.653 424.51 262.843 424.756 264.297 424.893 C 265.751 425.029 266.941 425.266 266.941 425.419 C 266.941 425.572 267.774 425.785 268.792 425.891 C 269.81 425.999 271.753 426.251 273.111 426.452 C 280.093 427.488 319.363 427.178 319.762 426.084 C 319.828 425.907 320.66 425.763 321.613 425.763 C 322.567 425.763 323.347 425.62 323.347 425.446 C 323.347 425.272 324.458 425.018 325.816 424.881 C 327.173 424.745 328.362 424.51 328.455 424.358 C 328.549 424.206 329.5 423.974 330.569 423.84 C 331.638 423.706 332.513 423.471 332.513 423.318 C 332.513 423.164 333.223 422.941 334.091 422.822 C 334.959 422.703 335.951 422.457 336.294 422.274 C 337.837 421.458 339.554 420.827 340.233 420.827 C 340.64 420.827 340.973 420.683 340.973 420.506 C 340.973 420.328 341.608 420.077 342.384 419.946 C 343.159 419.815 343.794 419.563 343.794 419.386 C 343.794 419.209 343.988 419.065 344.224 419.065 C 344.646 419.065 351.202 415.919 351.549 415.551 C 351.646 415.448 352.321 415.061 353.048 414.691 C 353.775 414.32 354.37 413.884 354.37 413.721 C 354.37 413.558 354.535 413.424 354.736 413.424 C 355.082 413.424 356.882 412.261 357.736 411.485 C 357.949 411.291 358.654 410.736 359.303 410.251 C 361.225 408.814 367.695 402.219 367.94 401.446 C 368.064 401.054 368.318 400.733 368.504 400.733 C 368.689 400.733 368.995 400.376 369.184 399.94 C 369.558 399.076 370.295 397.84 370.605 397.56 C 370.919 397.276 371.996 394.846 371.996 394.423 C 371.996 394.209 372.143 394.035 372.321 394.035 C 372.5 394.035 372.75 393.559 372.878 392.977 C 373.006 392.395 373.236 391.92 373.39 391.92 C 373.543 391.92 373.776 391.253 373.905 390.439 C 374.036 389.625 374.261 388.792 374.406 388.588 C 376.417 385.764 376.999 365.955 375.193 361.778 C 375.026 361.39 374.634 360.494 374.324 359.786 C 374.013 359.077 373.759 358.254 373.759 357.956 C 373.759 357.657 373.613 357.323 373.434 357.212 C 373.255 357.102 373.004 356.537 372.877 355.957 C 372.75 355.378 372.516 354.903 372.36 354.903 C 372.202 354.903 371.973 354.507 371.852 354.022 C 371.73 353.537 371.475 353.141 371.284 353.141 C 371.095 353.141 370.939 352.916 370.939 352.641 C 370.939 352.367 370.82 352.089 370.674 352.024 C 370.529 351.96 370.017 351.153 369.536 350.232 C 369.055 349.311 368.54 348.558 368.39 348.558 C 368.241 348.558 368.119 348.391 368.119 348.189 C 368.119 347.985 367.722 347.452 367.237 347.002 C 366.752 346.553 366.356 346.034 366.356 345.848 C 366.356 345.474 360.402 339.392 360.037 339.392 C 359.911 339.392 358.962 338.599 357.929 337.629 C 356.897 336.66 355.935 335.867 355.791 335.867 C 355.648 335.867 355.135 335.51 354.652 335.073 C 352.997 333.58 351.749 332.694 351.296 332.694 C 351.048 332.694 350.844 332.53 350.844 332.33 C 350.844 332.131 350.567 331.864 350.227 331.739 C 349.888 331.614 349.12 331.144 348.519 330.692 C 347.919 330.242 347.258 329.874 347.051 329.874 C 346.843 329.874 346.62 329.755 346.555 329.609 C 346.491 329.464 345.644 328.948 344.675 328.463 C 343.706 327.979 342.833 327.503 342.736 327.406 C 342.639 327.309 341.449 326.674 340.092 325.996 C 338.735 325.317 337.545 324.667 337.448 324.552 C 337.351 324.436 336.836 324.235 336.302 324.104 C 335.769 323.974 335.333 323.711 335.333 323.521 C 335.333 323.331 335.016 323.175 334.628 323.175 C 334.24 323.175 333.923 323.054 333.923 322.905 C 333.923 322.756 332.931 322.246 331.719 321.772 C 330.508 321.298 329.437 320.824 329.34 320.717 C 329.243 320.612 328.608 320.263 327.93 319.945 C 327.251 319.626 325.702 318.874 324.487 318.274 C 323.273 317.673 321.964 317.182 321.579 317.182 C 321.194 317.182 320.879 317.024 320.879 316.83 C 320.879 316.636 320.654 316.477 320.379 316.477 C 320.105 316.477 319.828 316.358 319.762 316.213 C 319.622 315.896 315.938 314.362 315.32 314.362 C 315.082 314.362 314.886 314.203 314.886 314.01 C 314.886 313.816 314.688 313.654 314.445 313.65 C 314.203 313.646 312.577 312.933 310.832 312.066 C 309.087 311.199 307.381 310.488 307.042 310.487 C 306.703 310.485 306.425 310.338 306.425 310.16 C 306.425 309.981 305.949 309.731 305.367 309.603 C 304.786 309.475 304.31 309.225 304.31 309.046 C 304.31 308.868 304.085 308.722 303.81 308.722 C 303.536 308.722 303.258 308.603 303.193 308.457 C 303.129 308.312 302.285 307.796 301.32 307.311 C 300.354 306.827 299.351 306.232 299.091 305.989 C 298.832 305.747 298.393 305.549 298.115 305.549 C 297.838 305.549 297.612 305.409 297.612 305.238 C 297.612 305.066 297.334 304.833 296.995 304.718 C 296.117 304.424 295.016 303.685 294.686 303.169 C 294.531 302.927 294.212 302.728 293.977 302.728 C 293.743 302.728 293.123 302.332 292.6 301.847 C 292.077 301.362 291.568 300.966 291.468 300.966 C 291.15 300.966 284.215 293.949 284.215 293.627 C 284.215 293.458 283.898 293.032 283.51 292.681 C 283.123 292.33 282.805 291.83 282.805 291.569 C 282.805 291.308 282.647 291.095 282.453 291.095 C 282.259 291.095 282.1 290.857 282.1 290.566 C 282.1 290.275 281.944 290.037 281.755 290.037 C 281.564 290.037 281.302 289.612 281.171 289.092 C 281.041 288.571 280.721 287.738 280.462 287.241 C 280.202 286.743 279.989 286.01 279.987 285.613 C 279.986 285.215 279.829 284.734 279.639 284.544 C 279.11 284.015 278.821 276.405 279.238 273.997 C 279.813 270.673 280.454 268.18 280.732 268.18 C 280.872 268.18 281.091 267.704 281.219 267.122 C 281.347 266.541 281.597 266.065 281.776 266.065 C 281.954 266.065 282.1 265.895 282.1 265.687 C 282.1 265.48 282.299 265.088 282.541 264.818 C 283.536 263.708 283.864 263.26 283.872 262.995 C 283.896 262.279 289.936 257.252 290.773 257.252 C 290.871 257.252 291.535 256.855 292.248 256.37 C 292.961 255.885 293.826 255.489 294.168 255.489 C 294.511 255.489 294.791 255.343 294.791 255.165 C 294.791 254.986 295.266 254.735 295.845 254.608 C 296.425 254.482 296.99 254.23 297.1 254.051 C 297.211 253.873 297.609 253.726 297.985 253.726 C 298.362 253.726 298.669 253.583 298.669 253.407 C 298.669 253.231 299.463 252.978 300.432 252.845 C 301.401 252.712 302.273 252.475 302.37 252.318 C 302.467 252.161 303.538 251.92 304.75 251.783 C 305.962 251.645 307.131 251.39 307.348 251.215 C 308.479 250.302 334.019 250.314 335.12 251.228 C 335.334 251.406 336.663 251.665 338.073 251.804 C 339.483 251.942 340.714 252.181 340.809 252.335 C 340.904 252.488 342.011 252.723 343.268 252.858 C 344.527 252.993 345.556 253.243 345.556 253.415 C 345.556 253.586 345.943 253.726 346.417 253.726 C 346.89 253.726 347.364 253.866 347.47 254.038 C 347.576 254.209 348.379 254.458 349.255 254.589 C 350.131 254.72 351.283 255.054 351.816 255.332 C 352.348 255.61 353.14 255.838 353.577 255.84 C 354.013 255.841 354.371 255.96 354.371 256.106 C 354.371 256.251 355.125 256.659 356.045 257.013 C 356.966 257.365 358.003 257.807 358.35 257.994 C 359.075 258.383 359.771 257.856 360.164 256.618 C 360.299 256.191 360.545 255.841 360.711 255.841 C 360.877 255.841 361.116 255.365 361.244 254.784 C 361.372 254.202 361.62 253.726 361.794 253.726 C 361.969 253.726 362.212 253.33 362.333 252.845 C 362.455 252.36 362.656 251.962 362.78 251.959 C 362.905 251.957 363.323 251.283 363.709 250.461 C 364.096 249.639 364.612 248.757 364.855 248.501 C 365.099 248.245 365.298 247.809 365.298 247.531 C 365.298 247.255 365.439 247.028 365.613 247.028 C 365.786 247.028 366.03 246.618 366.156 246.117 C 366.282 245.615 366.701 244.865 367.089 244.449 C 367.476 244.033 367.884 243.333 367.994 242.893 C 368.104 242.453 368.324 242.093 368.482 242.093 C 368.639 242.093 368.872 241.617 369 241.035 C 369.128 240.453 369.367 239.977 369.533 239.977 C 369.985 239.977 370.311 238.662 370.057 237.862 C 369.915 237.412 369.524 237.157 368.976 237.157 C 368.505 237.157 368.119 237 368.119 236.809 C 368.119 236.617 367.484 236.359 366.708 236.235 C 365.933 236.111 365.298 235.881 365.298 235.723 C 365.298 235.566 364.584 235.331 363.712 235.2 C 362.839 235.069 362.125 234.822 362.125 234.65 C 362.125 234.478 361.739 234.337 361.265 234.337 C 360.792 234.337 360.313 234.19 360.201 234.009 C 360.09 233.828 359.127 233.572 358.061 233.439 C 356.995 233.306 356.041 233.064 355.941 232.902 C 355.841 232.74 354.811 232.499 353.654 232.369 C 352.497 232.237 351.549 232.011 351.549 231.865 C 351.549 231.718 350.479 231.486 349.17 231.346 C 347.861 231.208 346.632 230.968 346.438 230.815 C 346.08 230.53 345.389 230.421 339.74 229.755 C 337.995 229.549 335.853 229.213 334.98 229.007 C 333.001 228.539 310.872 228.306 306.778 228.709 Z  M 145.846 237.729 C 137.749 238.942 129.467 243.069 122.981 249.123 C 121.416 250.583 116.409 256.891 116.409 257.402 C 116.409 257.521 116.044 258.21 115.598 258.933 C 106.203 274.161 110.147 297.447 124.219 309.842 C 134.662 319.04 150.617 322.947 162.591 319.238 C 171.495 316.479 177.125 313.041 182.881 306.848 C 203.181 285.004 193.451 248.282 165.025 239.454 C 163.396 238.948 161.586 238.366 161.005 238.163 C 159.932 237.785 147.786 237.439 145.846 237.729 Z " fill-rule="evenodd" fill="rgb(238,247,248)"/></g></svg>