<?xml version="1.0" standalone="no"?><!-- Generator: Gravit.io --><svg xmlns="http://www.w3.org/2000/svg" xmlns:xlink="http://www.w3.org/1999/xlink" style="isolation:isolate" viewBox="0 0 400 454.173" width="400" height="454.173"><path d=" M 37.6 0.47 C 36.17 0.674 34.829 1.011 34.62 1.22 C 34.411 1.429 33.837 1.6 33.344 1.6 C 32.851 1.6 32.346 1.764 32.222 1.965 C 32.097 2.166 31.277 2.452 30.398 2.6 C 29.519 2.749 28.8 3.034 28.8 3.235 C 28.8 3.436 28.61 3.6 28.378 3.6 C 27.037 3.6 19.677 7.936 17.2 10.185 C 15.741 11.51 11.57 15.702 10.338 17.083 C 7.841 19.879 3.6 26.989 3.6 28.378 C 3.6 28.61 3.436 28.8 3.235 28.8 C 3.034 28.8 2.749 29.519 2.6 30.398 C 2.452 31.277 2.166 32.097 1.965 32.222 C 1.764 32.346 1.6 32.887 1.6 33.424 C 1.6 33.961 1.444 34.4 1.252 34.4 C -0.361 34.4 -0.375 59.69 1.237 61.38 C 1.437 61.589 1.6 62.163 1.6 62.656 C 1.6 63.149 1.766 63.655 1.969 63.781 C 2.172 63.906 2.459 64.559 2.607 65.232 C 2.755 65.904 3.127 66.937 3.435 67.527 C 3.743 68.117 3.996 68.825 3.998 69.1 C 3.999 69.375 4.166 69.6 4.368 69.6 C 4.571 69.6 4.855 70.14 5 70.8 C 5.145 71.46 5.429 72 5.632 72 C 5.834 72 6 72.27 6 72.6 C 6 72.93 6.168 73.2 6.373 73.2 C 6.578 73.2 6.87 73.591 7.022 74.069 C 7.317 74.998 7.579 75.369 9.3 77.29 C 9.905 77.966 10.4 78.67 10.4 78.856 C 10.4 79.284 15.939 84.799 17.174 85.6 C 17.682 85.93 18.333 86.425 18.62 86.7 C 18.908 86.975 19.316 87.2 19.529 87.2 C 19.741 87.2 20.018 87.47 20.145 87.8 C 20.271 88.13 20.651 88.4 20.987 88.4 C 21.324 88.4 21.6 88.577 21.6 88.792 C 21.6 89.008 22.05 89.298 22.6 89.436 C 23.15 89.574 23.6 89.833 23.6 90.012 C 23.6 90.19 24.14 90.455 24.8 90.6 C 25.46 90.745 26 91.029 26 91.232 C 26 91.434 26.36 91.6 26.8 91.6 C 27.24 91.6 27.6 91.78 27.6 92 C 27.6 92.22 27.825 92.401 28.1 92.402 C 28.375 92.404 29.103 92.667 29.717 92.988 C 30.331 93.308 31.458 93.687 32.221 93.83 C 32.984 93.974 33.701 94.24 33.814 94.422 C 33.926 94.604 35.274 94.877 36.809 95.028 C 38.344 95.18 39.6 95.445 39.6 95.618 C 39.6 95.924 41.828 96.192 48.1 96.64 C 50.183 96.788 51.2 96.72 51.2 96.43 C 51.2 96.164 52.268 96 54 96 C 55.54 96 56.8 95.846 56.8 95.657 C 56.8 95.468 57.915 95.197 59.278 95.055 C 60.64 94.913 61.855 94.639 61.978 94.447 C 62.1 94.255 62.964 93.97 63.898 93.814 C 64.832 93.658 65.685 93.386 65.793 93.211 C 65.902 93.035 66.623 92.772 67.396 92.627 C 68.168 92.482 68.8 92.229 68.8 92.064 C 68.8 91.899 69.61 91.43 70.6 91.022 C 71.59 90.613 72.4 90.144 72.4 89.979 C 72.4 89.814 72.895 89.483 73.5 89.245 C 74.896 88.695 75.906 88.036 77.095 86.9 C 77.613 86.405 78.178 86 78.351 86 C 78.822 86 84.396 80.449 85.99 78.393 C 86.754 77.407 87.496 76.51 87.64 76.4 C 87.783 76.29 88.276 75.495 88.736 74.632 C 89.195 73.77 89.713 72.96 89.886 72.832 C 90.425 72.433 91.6 70.108 91.6 69.438 C 91.6 69.087 91.772 68.8 91.982 68.8 C 92.192 68.8 92.482 68.17 92.626 67.4 C 92.771 66.63 93.033 66 93.209 66 C 93.386 66 93.651 65.281 93.8 64.402 C 93.948 63.523 94.234 62.703 94.435 62.578 C 94.636 62.454 94.8 61.838 94.8 61.21 C 94.8 60.581 94.964 60.007 95.164 59.933 C 96.058 59.606 97.204 44.566 96.452 43.023 C 96.231 42.57 95.934 40.806 95.792 39.103 C 95.649 37.399 95.367 35.904 95.166 35.779 C 94.965 35.655 94.8 35.124 94.8 34.6 C 94.8 34.076 94.636 33.546 94.435 33.422 C 94.234 33.297 93.948 32.477 93.8 31.598 C 93.651 30.719 93.389 30 93.216 30 C 93.043 30 92.79 29.295 92.652 28.434 C 92.514 27.572 92.266 26.807 92.101 26.734 C 91.935 26.66 91.485 26.015 91.1 25.3 C 90.715 24.585 90.085 23.415 89.7 22.7 C 89.315 21.985 88.908 21.31 88.796 21.2 C 88.684 21.09 88.144 20.326 87.596 19.503 C 87.048 18.679 86.465 18.004 86.3 18.003 C 86.135 18.001 86 17.798 86 17.551 C 86 16.639 76.696 8 75.714 8 C 75.431 8 75.2 7.823 75.2 7.608 C 75.2 7.392 74.75 7.102 74.2 6.964 C 73.65 6.826 73.2 6.553 73.2 6.357 C 73.2 6.16 72.945 6 72.633 6 C 72.322 6 72.007 5.865 71.933 5.7 C 71.764 5.319 68.263 3.6 67.656 3.6 C 67.405 3.6 67.2 3.436 67.2 3.235 C 67.2 3.034 66.48 2.749 65.6 2.6 C 64.72 2.451 64 2.186 64 2.01 C 64 1.679 63.778 1.62 58.8 0.629 C 55.386 -0.051 41.955 -0.152 37.6 0.47 Z  M 237.6 0.47 C 236.17 0.674 234.829 1.011 234.62 1.22 C 234.411 1.429 233.826 1.6 233.32 1.6 C 232.814 1.6 232.4 1.757 232.4 1.949 C 232.4 2.141 231.68 2.413 230.8 2.554 C 229.92 2.694 229.2 2.967 229.2 3.16 C 229.2 3.353 228.57 3.629 227.8 3.774 C 227.03 3.918 226.4 4.194 226.4 4.386 C 226.4 4.579 225.86 4.855 225.2 5 C 224.54 5.145 224 5.429 224 5.632 C 224 5.834 223.73 6 223.4 6 C 223.07 6 222.8 6.177 222.8 6.392 C 222.8 6.608 222.35 6.898 221.8 7.036 C 221.25 7.174 220.795 7.402 220.789 7.543 C 220.783 7.685 220.063 8.241 219.189 8.78 C 218.315 9.32 217.6 9.905 217.6 10.08 C 217.6 10.256 217.426 10.4 217.213 10.4 C 216.676 10.4 211.118 15.936 210.183 17.401 C 209.763 18.061 209.19 18.744 208.91 18.92 C 208.629 19.096 208.4 19.501 208.4 19.82 C 208.4 20.139 208.248 20.4 208.063 20.4 C 207.878 20.4 207.383 21.072 206.963 21.894 C 206.543 22.716 205.975 23.628 205.7 23.922 C 205.425 24.217 205.2 24.714 205.2 25.029 C 205.2 25.343 205.04 25.6 204.843 25.6 C 204.647 25.6 204.367 26.095 204.221 26.7 C 203.858 28.204 203.059 30 202.753 30 C 202.615 30 202.381 30.76 202.232 31.688 C 202.084 32.616 201.797 33.478 201.595 33.603 C 201.392 33.728 201.104 34.904 200.953 36.215 C 200.802 37.527 200.481 38.728 200.239 38.885 C 199.628 39.283 199.628 56.317 200.239 56.715 C 200.481 56.872 200.803 58.078 200.954 59.395 C 201.105 60.712 201.403 61.963 201.615 62.175 C 201.827 62.387 202.001 62.929 202.002 63.38 C 202.004 63.831 202.274 64.716 202.602 65.346 C 202.931 65.976 203.2 66.741 203.2 67.046 C 203.2 67.351 203.38 67.6 203.6 67.6 C 203.82 67.6 204.001 67.825 204.002 68.1 C 204.003 68.544 204.434 69.446 206.692 73.729 C 207.02 74.351 207.538 74.955 207.844 75.072 C 208.15 75.19 208.4 75.538 208.4 75.847 C 208.4 76.155 208.76 76.716 209.2 77.093 C 209.64 77.47 210 77.939 210 78.136 C 210 78.659 217.388 86 217.915 86 C 218.16 86 218.504 86.242 218.68 86.537 C 218.856 86.832 219.54 87.413 220.2 87.828 C 220.86 88.242 221.49 88.676 221.6 88.791 C 221.71 88.906 222.7 89.45 223.8 90 C 224.9 90.55 225.89 91.099 226 91.221 C 226.388 91.649 229.129 92.8 229.76 92.8 C 230.112 92.8 230.4 92.969 230.4 93.175 C 230.4 93.382 231.21 93.672 232.2 93.821 C 233.19 93.969 234 94.236 234 94.414 C 234 94.591 235.173 94.862 236.606 95.015 C 238.039 95.169 239.309 95.453 239.429 95.647 C 239.549 95.841 240.796 96 242.2 96 C 243.604 96 244.864 96.18 245 96.4 C 245.322 96.922 251.078 96.922 251.4 96.4 C 251.536 96.18 252.807 96 254.224 96 C 255.641 96 256.8 95.843 256.8 95.652 C 256.8 95.46 258.06 95.179 259.6 95.027 C 261.14 94.876 262.4 94.603 262.4 94.421 C 262.4 94.239 263.21 93.969 264.2 93.821 C 265.19 93.672 266 93.402 266 93.22 C 266 93.038 266.63 92.771 267.4 92.626 C 268.17 92.482 268.802 92.237 268.805 92.082 C 268.807 91.927 269.572 91.443 270.505 91.006 C 271.437 90.569 272.29 90.119 272.4 90.006 C 272.51 89.893 273.455 89.354 274.5 88.808 C 275.545 88.263 276.4 87.678 276.4 87.508 C 276.4 87.339 276.565 87.2 276.766 87.2 C 277.5 87.2 285.585 79.732 285.595 79.046 C 285.598 78.851 286.05 78.275 286.6 77.765 C 287.15 77.255 287.6 76.678 287.6 76.481 C 287.6 76.285 288.051 75.601 288.602 74.962 C 289.154 74.323 289.718 73.44 289.856 73 C 289.995 72.56 290.219 72.11 290.354 72 C 290.741 71.686 292.4 68.164 292.4 67.656 C 292.4 67.405 292.58 67.2 292.8 67.2 C 293.02 67.2 293.2 66.951 293.2 66.646 C 293.2 66.341 293.469 65.576 293.798 64.946 C 294.126 64.316 294.396 63.431 294.398 62.98 C 294.399 62.529 294.579 61.981 294.798 61.762 C 295.016 61.544 295.312 60.248 295.454 58.882 C 295.597 57.517 295.851 56.4 296.018 56.4 C 296.186 56.4 296.421 54.645 296.542 52.5 C 296.662 50.355 296.772 48.42 296.786 48.2 C 296.881 46.676 296.237 39.6 296.004 39.6 C 295.844 39.6 295.597 38.483 295.454 37.118 C 295.312 35.752 295.016 34.456 294.798 34.238 C 294.579 34.019 294.399 33.471 294.398 33.02 C 294.396 32.569 294.126 31.684 293.798 31.054 C 293.469 30.424 293.2 29.659 293.2 29.354 C 293.2 29.049 293.028 28.8 292.818 28.8 C 292.608 28.8 292.318 28.17 292.174 27.4 C 292.029 26.63 291.765 26 291.587 26 C 291.409 26 291.145 25.46 291 24.8 C 290.855 24.14 290.592 23.6 290.415 23.6 C 290.238 23.6 289.988 23.285 289.858 22.9 C 289.524 21.904 288.685 20.655 288.1 20.28 C 287.825 20.104 287.6 19.776 287.6 19.552 C 287.6 19.327 287.375 18.905 287.1 18.613 C 286.825 18.322 286.15 17.505 285.6 16.798 C 283.775 14.452 280.426 11.2 279.836 11.2 C 279.516 11.2 279.151 10.876 279.025 10.479 C 278.899 10.083 278.082 9.318 277.209 8.779 C 276.336 8.241 275.617 7.665 275.611 7.5 C 275.605 7.335 275.343 7.2 275.029 7.2 C 274.714 7.2 274.219 6.975 273.929 6.699 C 273.638 6.424 272.68 5.839 271.8 5.399 C 270.92 4.96 270.142 4.471 270.071 4.313 C 270 4.155 269.325 3.91 268.571 3.768 C 267.817 3.627 267.2 3.367 267.2 3.191 C 267.2 3.014 266.481 2.749 265.602 2.6 C 264.723 2.452 263.903 2.166 263.778 1.965 C 263.654 1.764 263.113 1.6 262.576 1.6 C 262.039 1.6 261.6 1.444 261.6 1.252 C 261.6 0.178 243.729 -0.405 237.6 0.47 Z  M 57.4 1.613 C 100.382 12.187 109.251 66.561 71.622 88.807 C 33.144 111.555 -12.91 70.933 4.496 29.6 C 5.19 27.95 6.173 25.929 6.679 25.108 C 7.186 24.287 7.6 23.513 7.6 23.387 C 7.6 22.968 11.869 17.429 13.648 15.54 C 18.822 10.046 25.35 5.932 33.8 2.841 C 35.107 2.363 38.253 1.674 41.4 1.175 C 44.218 0.729 55.005 1.024 57.4 1.613 Z  M 258.4 1.793 C 264.702 3.409 271.244 6.291 275.4 9.282 C 295.46 23.716 301.327 50.968 288.87 71.851 C 272.924 98.586 236.792 103.145 214.79 81.2 C 187.057 53.538 203.142 6.494 242.2 1.034 C 245.03 0.638 255.881 1.147 258.4 1.793 Z  M 202.07 120.955 C 181.115 141.912 180.345 142.735 180.47 144.043 L 180.6 145.4 L 187.992 145.477 C 192.765 145.527 195.435 145.704 195.526 145.977 C 195.603 146.21 196.271 146.4 197.01 146.4 C 198.323 146.4 199.392 147.203 198.483 147.506 C 198.231 147.59 197.91 148.275 197.768 149.029 C 197.627 149.783 197.365 150.4 197.187 150.4 C 197.009 150.4 196.745 150.94 196.6 151.6 C 196.455 152.26 196.19 152.8 196.012 152.8 C 195.833 152.8 195.567 153.295 195.421 153.9 C 195.049 155.441 194.256 157.2 193.934 157.2 C 193.785 157.2 193.545 157.74 193.4 158.4 C 193.255 159.06 192.979 159.6 192.786 159.6 C 192.594 159.6 192.318 160.23 192.174 161 C 192.029 161.77 191.795 162.4 191.653 162.4 C 191.511 162.4 191.146 162.985 190.841 163.7 C 190.536 164.415 189.952 165.755 189.543 166.678 C 189.134 167.601 188.8 168.546 188.8 168.778 C 188.8 169.01 188.64 169.2 188.443 169.2 C 188.247 169.2 187.967 169.695 187.821 170.3 C 187.449 171.841 186.656 173.6 186.334 173.6 C 186.185 173.6 185.945 174.14 185.8 174.8 C 185.655 175.46 185.371 176 185.168 176 C 184.966 176 184.794 176.225 184.786 176.5 C 184.779 176.775 184.425 177.72 184 178.6 C 183.575 179.48 183.221 180.515 183.214 180.9 C 183.206 181.285 183.062 181.6 182.894 181.6 C 182.573 181.6 181.2 184.52 181.2 185.203 C 181.2 185.421 181.02 185.6 180.8 185.6 C 180.58 185.6 180.399 185.825 180.398 186.1 C 180.396 186.375 180.154 187.062 179.859 187.627 C 179.565 188.191 179.191 189.18 179.03 189.823 C 178.869 190.466 178.603 191.084 178.439 191.196 C 177.95 191.532 175.6 196.61 175.6 197.332 C 175.6 197.699 175.42 198 175.2 198 C 174.98 198 174.8 198.198 174.8 198.44 C 174.8 198.95 173.559 201.705 173.196 202 C 173.06 202.11 172.522 203.37 172 204.8 C 171.478 206.23 170.929 207.49 170.779 207.6 C 170.63 207.71 170.369 208.25 170.2 208.8 C 170.031 209.35 169.772 209.89 169.625 210 C 169.186 210.329 168 213.073 168 213.76 C 168 214.112 167.82 214.4 167.6 214.4 C 167.38 214.4 167.2 214.579 167.2 214.797 C 167.2 215.443 165.835 218.4 165.537 218.4 C 165.387 218.4 165.145 218.938 165.001 219.595 C 164.857 220.253 164.572 220.894 164.369 221.019 C 163.153 221.771 164.222 223.739 166.102 224.211 C 166.706 224.363 167.2 224.639 167.2 224.825 C 167.2 225.011 167.83 225.282 168.6 225.426 C 169.37 225.571 170 225.835 170 226.013 C 170 227.758 173.415 226.561 173.825 224.672 C 173.976 223.973 174.226 223.31 174.379 223.2 C 174.632 223.019 176.022 220.185 177.746 216.34 C 178.106 215.536 178.4 214.591 178.4 214.24 C 178.4 213.888 178.58 213.6 178.8 213.6 C 179.02 213.6 179.2 213.33 179.2 213 C 179.2 212.67 179.38 212.4 179.6 212.4 C 179.82 212.4 180.006 212.175 180.014 211.9 C 180.021 211.625 180.375 210.68 180.8 209.8 C 181.225 208.92 181.579 207.885 181.586 207.5 C 181.594 207.115 181.766 206.8 181.968 206.8 C 182.171 206.8 182.455 206.26 182.6 205.6 C 182.745 204.94 182.985 204.4 183.134 204.4 C 183.283 204.4 183.654 203.815 183.959 203.1 C 184.264 202.385 184.848 201.045 185.257 200.122 C 185.666 199.199 186 198.254 186 198.022 C 186 197.79 186.18 197.6 186.4 197.6 C 186.62 197.6 186.8 197.24 186.8 196.8 C 186.8 196.36 186.98 196 187.2 196 C 187.42 196 187.606 195.775 187.614 195.5 C 187.621 195.225 187.975 194.28 188.4 193.4 C 188.825 192.52 189.179 191.485 189.186 191.1 C 189.194 190.715 189.366 190.4 189.568 190.4 C 189.771 190.4 190.055 189.86 190.2 189.2 C 190.345 188.54 190.585 188 190.734 188 C 190.883 188 191.254 187.415 191.559 186.7 C 192.977 183.376 193.702 181.703 194.229 180.54 C 194.543 179.846 194.8 179.081 194.8 178.84 C 194.8 178.598 194.936 178.4 195.102 178.4 C 195.269 178.4 195.654 177.815 195.959 177.1 C 196.264 176.385 196.848 175.045 197.257 174.122 C 197.666 173.199 198 172.254 198 172.022 C 198 171.79 198.18 171.6 198.4 171.6 C 198.62 171.6 198.804 171.375 198.809 171.1 C 198.814 170.825 199.35 169.52 200 168.2 C 200.65 166.88 201.186 165.575 201.191 165.3 C 201.196 165.025 201.372 164.8 201.582 164.8 C 201.792 164.8 202.082 164.17 202.226 163.4 C 202.371 162.63 202.635 162 202.813 162 C 202.991 162 203.255 161.46 203.4 160.8 C 203.545 160.14 203.829 159.6 204.032 159.6 C 204.234 159.6 204.4 159.251 204.4 158.824 C 204.4 158.397 204.566 157.945 204.769 157.819 C 204.972 157.694 205.257 157.053 205.401 156.395 C 205.545 155.738 205.815 155.2 206 155.2 C 206.185 155.2 206.455 154.66 206.6 154 C 206.745 153.34 207.029 152.8 207.232 152.8 C 207.434 152.8 207.6 152.44 207.6 152 C 207.6 150.971 207.953 150.992 209.263 152.1 C 209.847 152.595 210.726 153.27 211.216 153.6 C 211.706 153.93 212.308 154.431 212.554 154.713 C 212.799 154.995 213.495 155.746 214.1 156.382 C 214.705 157.018 215.2 157.707 215.2 157.913 C 215.2 158.119 215.65 158.626 216.2 159.039 C 216.75 159.452 217.2 159.975 217.2 160.202 C 217.2 161.429 219.272 163.6 220.443 163.6 C 222.587 163.6 222.787 163.037 223.068 156.223 C 223.21 152.8 223.455 150 223.614 150 C 223.773 150 224.034 146.625 224.194 142.5 C 224.354 138.375 224.632 134.818 224.813 134.595 C 224.993 134.372 225.237 132.482 225.356 130.395 C 225.853 121.619 226.654 111.358 226.885 110.8 C 227.226 109.977 227.616 100.507 227.338 99.783 C 227.191 99.399 226.549 99.204 225.457 99.211 C 223.805 99.223 223.732 99.291 202.07 120.955 Z  M 57.653 101.559 C 57.055 101.937 57.375 112.214 57.996 112.598 C 58.165 112.702 58.433 115.041 58.592 117.795 C 58.751 120.549 59.024 122.891 59.2 123 C 59.376 123.109 59.649 125.451 59.808 128.205 C 59.967 130.959 60.255 133.31 60.448 133.43 C 60.642 133.549 60.8 134.807 60.8 136.224 C 60.8 137.641 60.96 138.8 61.155 138.8 C 61.351 138.8 61.641 141.142 61.8 144.004 C 61.959 146.866 62.231 149.296 62.404 149.403 C 62.578 149.51 62.849 151.851 63.008 154.605 C 63.167 157.359 63.455 159.71 63.648 159.83 C 63.842 159.949 64 160.991 64 162.144 C 64 164.678 64.45 165.2 66.637 165.2 C 68.131 165.2 68.343 165.081 68.588 164.104 C 68.74 163.501 68.993 162.916 69.152 162.804 C 69.311 162.692 70.062 161.706 70.821 160.614 C 74.531 155.272 78.932 151.87 79.397 153.984 C 79.543 154.653 79.815 155.2 80 155.2 C 80.185 155.2 80.455 155.74 80.6 156.4 C 80.745 157.06 81.029 157.6 81.232 157.6 C 81.434 157.6 81.6 157.87 81.6 158.2 C 81.6 158.53 81.76 158.8 81.955 158.8 C 82.151 158.8 82.427 159.417 82.568 160.171 C 82.71 160.925 82.955 161.6 83.113 161.671 C 83.271 161.742 84.026 163.06 84.791 164.6 C 85.557 166.14 86.322 167.46 86.491 167.533 C 86.661 167.607 86.8 167.857 86.8 168.09 C 86.8 168.522 88.435 172.039 88.803 172.4 C 88.916 172.51 89.366 173.32 89.804 174.2 C 90.242 175.08 90.721 175.892 90.868 176.004 C 91.016 176.116 91.26 176.701 91.412 177.304 C 91.563 177.907 91.847 178.4 92.043 178.4 C 92.24 178.4 92.4 178.579 92.4 178.797 C 92.4 179.443 93.765 182.4 94.063 182.4 C 94.213 182.4 94.455 182.94 94.6 183.6 C 94.745 184.26 95.015 184.8 95.2 184.8 C 95.385 184.8 95.655 185.34 95.8 186 C 95.945 186.66 96.229 187.2 96.432 187.2 C 96.634 187.2 96.8 187.379 96.8 187.597 C 96.8 188.243 98.165 191.2 98.463 191.2 C 98.613 191.2 98.855 191.74 99 192.4 C 99.145 193.06 99.41 193.6 99.588 193.6 C 99.767 193.6 100.037 194.093 100.188 194.696 C 100.34 195.299 100.584 195.884 100.732 195.996 C 100.879 196.108 101.9 198 103 200.2 C 104.1 202.4 105.121 204.292 105.268 204.404 C 105.416 204.516 105.66 205.101 105.812 205.704 C 105.963 206.307 106.247 206.8 106.443 206.8 C 106.64 206.8 106.8 207.07 106.8 207.4 C 106.8 207.73 106.98 208 107.2 208 C 107.42 208 107.606 208.225 107.614 208.5 C 107.621 208.775 107.975 209.72 108.4 210.6 C 108.825 211.48 109.179 212.425 109.186 212.7 C 109.194 212.975 109.366 213.2 109.568 213.2 C 109.771 213.2 110.055 213.74 110.2 214.4 C 110.345 215.06 110.629 215.6 110.832 215.6 C 111.034 215.6 111.2 215.87 111.2 216.2 C 111.2 216.53 111.38 216.8 111.6 216.8 C 111.82 216.8 112 217.011 112 217.268 C 112 217.845 114.428 222.922 114.839 223.204 C 115.003 223.316 115.26 223.901 115.412 224.504 C 115.563 225.107 115.847 225.6 116.043 225.6 C 116.24 225.6 116.4 225.893 116.4 226.25 C 116.4 226.943 118.715 226.771 119.18 226.044 C 119.301 225.855 119.985 225.574 120.7 225.418 C 121.415 225.263 122 224.985 122 224.8 C 122 224.615 122.54 224.345 123.2 224.2 C 123.86 224.055 124.4 223.771 124.4 223.568 C 124.4 223.366 124.67 223.2 125 223.2 C 125.891 223.2 125.728 221.974 124.621 220.344 C 124.082 219.552 123.522 218.43 123.377 217.851 C 123.232 217.273 122.967 216.8 122.788 216.8 C 122.61 216.8 122.345 216.26 122.2 215.6 C 122.055 214.94 121.785 214.4 121.6 214.4 C 121.415 214.4 121.145 213.86 121 213.2 C 120.855 212.54 120.571 212 120.368 212 C 120.166 212 120 211.73 120 211.4 C 120 211.07 119.828 210.8 119.618 210.8 C 119.408 210.8 119.118 210.17 118.974 209.4 C 118.829 208.63 118.565 208 118.387 208 C 118.209 208 117.945 207.46 117.8 206.8 C 117.655 206.14 117.416 205.598 117.268 205.596 C 117.121 205.594 116.645 204.784 116.21 203.796 C 115.776 202.808 115.281 202 115.11 202 C 114.94 202 114.8 201.782 114.8 201.515 C 114.8 201.005 111.231 193.544 110.822 193.2 C 110.692 193.09 109.695 191.2 108.608 189 C 107.52 186.8 106.503 184.908 106.347 184.796 C 106.191 184.684 105.94 184.099 105.788 183.496 C 105.637 182.893 105.367 182.4 105.188 182.4 C 105.01 182.4 104.745 181.86 104.6 181.2 C 104.455 180.54 104.171 180 103.968 180 C 103.766 180 103.6 179.64 103.6 179.2 C 103.6 178.76 103.434 178.4 103.232 178.4 C 103.029 178.4 102.745 177.86 102.6 177.2 C 102.455 176.54 102.185 176 102 176 C 101.815 176 101.545 175.46 101.4 174.8 C 101.255 174.14 100.985 173.6 100.8 173.6 C 100.615 173.6 100.345 173.06 100.2 172.4 C 100.055 171.74 99.813 171.2 99.663 171.2 C 99.373 171.2 98 168.252 98 167.631 C 98 167.43 97.865 167.207 97.7 167.133 C 97.535 167.06 96.776 165.74 96.014 164.2 C 95.251 162.66 94.511 161.31 94.368 161.2 C 94.225 161.09 93.981 160.595 93.827 160.1 C 93.672 159.605 93.398 159.2 93.218 159.2 C 93.037 159.2 92.771 158.57 92.626 157.8 C 92.482 157.03 92.206 156.4 92.014 156.4 C 91.821 156.4 91.545 155.86 91.4 155.2 C 91.255 154.54 90.971 154 90.768 154 C 90.566 154 90.4 153.73 90.4 153.4 C 90.4 153.07 90.24 152.8 90.043 152.8 C 89.847 152.8 89.563 152.307 89.412 151.704 C 89.26 151.101 88.993 150.516 88.819 150.404 C 88.644 150.292 88.375 149.623 88.222 148.917 L 87.944 147.635 L 89.981 147.365 C 91.101 147.216 92.115 146.938 92.233 146.747 C 92.351 146.556 95.297 146.4 98.781 146.4 C 105.662 146.4 105.604 146.42 105.597 144.067 C 105.594 143.297 105.078 142.555 103.739 141.4 C 102.719 140.52 100.554 138.509 98.929 136.93 C 97.303 135.352 95.145 133.372 94.132 132.53 C 93.12 131.689 90.995 129.74 89.41 128.2 C 87.825 126.66 85.418 124.41 84.06 123.2 C 82.702 121.99 80.535 120.01 79.245 118.8 C 74.834 114.664 69.002 109.281 67.045 107.54 C 65.969 106.583 64.404 105.099 63.567 104.243 C 60.869 101.483 59.065 100.664 57.653 101.559 Z  M 139.4 237.605 C 135.967 238.092 134.259 238.457 133.8 238.8 C 133.58 238.964 132.545 239.223 131.5 239.374 C 130.455 239.525 129.6 239.795 129.6 239.973 C 129.6 240.152 128.88 240.413 128 240.554 C 127.12 240.694 126.4 240.987 126.4 241.205 C 126.4 241.422 126.108 241.6 125.751 241.6 C 125.04 241.6 120.539 243.898 119.679 244.7 C 119.384 244.975 118.905 245.2 118.614 245.2 C 118.323 245.2 117.982 245.47 117.855 245.8 C 117.729 246.13 117.392 246.4 117.107 246.4 C 116.823 246.4 116.252 246.85 115.839 247.4 C 115.426 247.95 114.926 248.4 114.727 248.4 C 114.007 248.4 110.085 252.306 107.296 255.8 C 107.12 256.02 106.352 257.1 105.588 258.2 C 104.825 259.3 104.089 260.29 103.954 260.4 C 103.819 260.51 103.569 261.05 103.4 261.6 C 103.231 262.15 102.972 262.69 102.825 262.8 C 102.454 263.078 101.2 265.825 101.2 266.36 C 101.2 266.602 101.036 266.8 100.835 266.8 C 100.634 266.8 100.349 267.519 100.2 268.398 C 100.052 269.277 99.779 270.09 99.593 270.204 C 99.408 270.319 99.133 271.4 98.982 272.606 C 98.831 273.813 98.549 274.8 98.354 274.8 C 98.159 274.8 98 275.509 98 276.376 C 98 277.243 97.82 278.064 97.6 278.2 C 97.357 278.35 97.2 281.33 97.2 285.8 C 97.2 290.27 97.357 293.25 97.6 293.4 C 97.82 293.536 98 294.357 98 295.224 C 98 296.091 98.159 296.8 98.354 296.8 C 98.549 296.8 98.832 297.79 98.983 299 C 99.134 300.21 99.425 301.2 99.629 301.2 C 99.833 301.2 100 301.578 100 302.04 C 100 302.501 100.288 303.536 100.639 304.34 C 102.368 308.291 102.621 308.791 102.9 308.795 C 103.065 308.798 103.2 309.057 103.2 309.371 C 103.2 309.686 103.425 310.183 103.7 310.478 C 103.975 310.772 104.555 311.705 104.988 312.552 C 105.421 313.399 106.006 314.181 106.288 314.289 C 106.57 314.397 106.8 314.654 106.8 314.86 C 106.8 315.542 113.089 322.107 115.557 324 C 116.274 324.55 117.235 325.315 117.692 325.7 C 118.149 326.085 118.765 326.4 119.061 326.4 C 119.358 326.4 119.6 326.537 119.6 326.705 C 119.6 327.026 119.871 327.192 123.034 328.8 C 124.115 329.35 125.09 329.918 125.201 330.063 C 125.311 330.208 126.076 330.453 126.901 330.608 C 127.725 330.762 128.4 331.038 128.4 331.22 C 128.4 331.402 129.21 331.672 130.2 331.821 C 131.19 331.969 132 332.231 132 332.402 C 132 332.573 132.585 332.811 133.3 332.932 C 134.015 333.053 135.68 333.358 137 333.611 C 140.205 334.223 155.802 333.958 156.48 333.28 C 156.744 333.016 157.464 332.8 158.08 332.8 C 158.696 332.8 159.2 332.62 159.2 332.4 C 159.2 332.18 159.695 331.999 160.3 331.998 C 160.905 331.996 161.883 331.743 162.473 331.435 C 163.063 331.127 164.098 330.754 164.773 330.606 C 165.448 330.458 166 330.185 166 330 C 166 329.815 166.54 329.545 167.2 329.4 C 167.86 329.255 168.4 328.971 168.4 328.768 C 168.4 328.566 168.655 328.4 168.967 328.4 C 169.278 328.4 169.593 328.265 169.667 328.1 C 169.74 327.935 170.655 327.354 171.7 326.808 C 172.745 326.263 173.6 325.678 173.6 325.508 C 173.6 325.339 173.8 325.2 174.045 325.2 C 174.936 325.2 183.6 317.148 183.6 316.32 C 183.6 316.123 184.005 315.564 184.5 315.078 C 185.536 314.061 186.321 312.905 186.658 311.9 C 186.788 311.515 187.02 311.2 187.176 311.2 C 187.512 311.2 189.2 307.911 189.2 307.256 C 189.2 307.005 189.372 306.8 189.582 306.8 C 189.792 306.8 190.082 306.17 190.226 305.4 C 190.371 304.63 190.649 304 190.845 304 C 191.04 304 191.2 303.651 191.2 303.224 C 191.2 302.797 191.37 302.342 191.577 302.214 C 191.784 302.086 192.079 301.131 192.232 300.091 C 192.386 299.051 192.669 298.097 192.862 297.972 C 193.056 297.847 193.327 296.272 193.466 294.472 C 193.605 292.672 193.872 291.2 194.059 291.2 C 194.504 291.2 194.505 280.912 194.06 280.637 C 193.874 280.522 193.607 278.959 193.469 277.165 C 193.331 275.371 193.057 273.7 192.861 273.452 C 192.665 273.203 192.379 272.303 192.225 271.451 C 192.071 270.599 191.793 269.609 191.606 269.251 C 190.881 267.859 190 265.658 190 265.24 C 190 264.998 189.834 264.8 189.632 264.8 C 189.429 264.8 189.145 264.26 189 263.6 C 188.855 262.94 188.59 262.4 188.412 262.4 C 188.233 262.4 187.984 261.991 187.859 261.492 C 187.734 260.993 187.286 260.214 186.864 259.761 C 186.443 259.309 185.979 258.564 185.834 258.106 C 185.688 257.648 185.306 257.173 184.985 257.05 C 184.663 256.926 184.4 256.632 184.4 256.395 C 184.4 255.929 181.688 253.012 177.479 248.952 C 176.481 247.988 175.551 247.2 175.415 247.2 C 175.278 247.2 174.811 246.869 174.377 246.464 C 173.942 246.059 173.095 245.474 172.493 245.164 C 171.892 244.854 171.162 244.375 170.871 244.1 C 170.581 243.825 170.101 243.6 169.805 243.6 C 169.509 243.6 169.207 243.465 169.133 243.3 C 168.923 242.827 166.544 241.6 165.838 241.6 C 165.487 241.6 165.2 241.436 165.2 241.235 C 165.2 241.034 164.48 240.749 163.6 240.6 C 162.72 240.451 162 240.178 162 239.994 C 162 239.809 161.01 239.534 159.8 239.383 C 158.59 239.232 157.6 238.949 157.6 238.754 C 157.6 238.559 157.006 238.4 156.28 238.4 C 155.554 238.4 154.784 238.224 154.569 238.009 C 154.045 237.485 142.423 237.176 139.4 237.605 Z  M 155.8 239.541 C 156.46 239.772 158.513 240.432 160.362 241.006 C 192.615 251.023 203.655 292.689 180.622 317.474 C 174.091 324.501 167.703 328.402 157.6 331.532 C 144.014 335.741 125.91 331.308 114.061 320.871 C 98.094 306.808 93.62 280.386 104.279 263.108 C 104.786 262.287 105.2 261.506 105.2 261.371 C 105.2 260.791 110.881 253.634 112.656 251.977 C 120.016 245.108 129.413 240.425 138.6 239.049 C 140.801 238.72 154.583 239.113 155.8 239.541 Z  M 336.305 253.483 C 336.802 253.579 337.522 253.575 337.905 253.475 C 338.287 253.375 337.88 253.296 337 253.301 C 336.12 253.305 335.807 253.387 336.305 253.483 Z " fill-rule="evenodd" fill="rgb(119,189,199)"/><path d=" M 41.4 1.175 C 38.253 1.674 35.107 2.363 33.8 2.841 C 25.35 5.932 18.822 10.046 13.648 15.54 C 11.869 17.429 7.6 22.968 7.6 23.387 C 7.6 23.513 7.186 24.287 6.679 25.108 C -3.421 41.48 -0.303 65.542 13.842 80.376 C 43.189 111.151 95.201 90.428 95.2 47.96 C 95.2 25.304 80.515 7.299 57.4 1.613 C 55.005 1.024 44.218 0.729 41.4 1.175 Z  M 242.2 1.034 C 203.142 6.494 187.057 53.538 214.79 81.2 C 236.792 103.145 272.924 98.586 288.87 71.851 C 301.327 50.968 295.46 23.716 275.4 9.282 C 266.832 3.116 252.599 -0.42 242.2 1.034 Z  M 321.2 228.814 C 313.873 229.535 310.151 230.021 309.04 230.402 C 308.402 230.621 307.378 230.8 306.764 230.8 C 306.15 230.8 305.549 230.959 305.429 231.153 C 305.309 231.347 304.041 231.631 302.61 231.784 C 301.179 231.937 299.914 232.216 299.798 232.403 C 299.682 232.591 298.6 232.867 297.394 233.018 C 296.187 233.169 295.2 233.451 295.2 233.646 C 295.2 233.841 294.795 234.001 294.3 234.002 C 293.805 234.004 292.884 234.274 292.254 234.602 C 291.624 234.931 290.769 235.2 290.354 235.2 C 289.939 235.2 289.6 235.357 289.6 235.549 C 289.6 235.741 288.88 236.013 288 236.154 C 287.12 236.294 286.4 236.587 286.4 236.805 C 286.4 237.022 286.023 237.2 285.562 237.2 C 284.767 237.2 282.435 238.291 281.996 238.868 C 281.884 239.016 281.299 239.26 280.696 239.412 C 280.093 239.563 279.6 239.847 279.6 240.043 C 279.6 240.24 279.3 240.4 278.934 240.4 C 278.234 240.4 272.297 243.927 272.067 244.48 C 271.993 244.656 271.713 244.8 271.444 244.8 C 271.01 244.8 270.374 245.261 267.578 247.6 C 267.184 247.93 266.293 248.65 265.598 249.2 C 263.603 250.78 261.518 252.866 260 254.801 C 259.23 255.783 258.33 256.873 258 257.223 C 256.753 258.547 255.6 260.191 255.6 260.644 C 255.6 260.903 255.33 261.218 255 261.345 C 254.67 261.471 254.4 261.858 254.4 262.204 C 254.4 262.55 254.049 263.21 253.62 263.671 C 253.191 264.131 252.727 265.024 252.588 265.654 C 252.45 266.284 252.194 266.8 252.019 266.8 C 251.845 266.8 251.587 267.52 251.446 268.4 C 251.306 269.28 251.026 270 250.824 270 C 250.622 270 250.334 270.99 250.183 272.2 C 250.032 273.41 249.749 274.4 249.554 274.4 C 249.359 274.4 249.2 275.195 249.2 276.167 C 249.2 277.138 249.01 277.997 248.778 278.074 C 248.204 278.265 248.21 293.97 248.784 294.544 C 249.013 294.773 249.2 295.644 249.2 296.48 C 249.2 297.316 249.359 298 249.554 298 C 249.749 298 250.032 298.99 250.183 300.2 C 250.334 301.41 250.602 302.4 250.778 302.4 C 250.954 302.4 251.213 303.12 251.354 304 C 251.494 304.88 251.787 305.6 252.005 305.6 C 252.222 305.6 252.4 305.887 252.4 306.238 C 252.4 306.944 253.627 309.323 254.1 309.533 C 254.265 309.607 254.4 309.86 254.4 310.096 C 254.4 310.455 257.776 315.776 258.4 316.4 C 258.51 316.51 259.254 317.414 260.053 318.41 C 263.201 322.332 270.966 329.536 273.1 330.515 C 273.595 330.743 274 331.08 274 331.264 C 274 331.449 274.199 331.6 274.442 331.6 C 274.686 331.6 275.567 332.14 276.4 332.8 C 277.233 333.46 278.114 334 278.358 334 C 278.601 334 278.8 334.177 278.8 334.392 C 278.8 334.608 279.25 334.898 279.8 335.036 C 280.35 335.174 280.8 335.428 280.8 335.6 C 280.8 335.772 281.25 336.026 281.8 336.164 C 282.35 336.302 282.8 336.592 282.8 336.808 C 282.8 337.023 283.07 337.2 283.4 337.2 C 283.73 337.2 284 337.366 284 337.568 C 284 337.771 284.54 338.055 285.2 338.2 C 285.86 338.345 286.404 338.584 286.408 338.732 C 286.413 338.879 287.399 339.45 288.6 340 C 289.801 340.55 290.787 341.135 290.792 341.3 C 290.796 341.465 291.045 341.6 291.344 341.6 C 291.643 341.6 292.948 342.138 294.244 342.795 C 295.54 343.452 296.825 343.992 297.1 343.995 C 297.375 343.998 297.6 344.18 297.6 344.4 C 297.6 344.62 297.779 344.8 297.997 344.8 C 298.643 344.8 301.6 346.165 301.6 346.463 C 301.6 346.613 302.14 346.855 302.8 347 C 303.46 347.145 304 347.415 304 347.6 C 304 347.785 304.54 348.055 305.2 348.2 C 305.86 348.345 306.4 348.621 306.4 348.814 C 306.4 349.006 307.03 349.282 307.8 349.426 C 308.57 349.571 309.2 349.849 309.2 350.045 C 309.2 350.24 309.47 350.4 309.8 350.4 C 310.13 350.4 310.4 350.566 310.4 350.768 C 310.4 350.971 310.94 351.255 311.6 351.4 C 312.26 351.545 312.8 351.815 312.8 352 C 312.8 352.185 313.34 352.455 314 352.6 C 314.66 352.745 315.2 353.009 315.2 353.187 C 315.2 353.365 315.83 353.629 316.6 353.774 C 317.37 353.918 318 354.208 318 354.418 C 318 354.628 318.27 354.8 318.6 354.8 C 318.93 354.8 319.2 354.966 319.2 355.168 C 319.2 355.371 319.74 355.655 320.4 355.8 C 321.06 355.945 321.6 356.229 321.6 356.432 C 321.6 356.634 321.814 356.8 322.076 356.8 C 322.537 356.8 327.596 359.189 328 359.598 C 328.11 359.709 329.1 360.25 330.2 360.8 C 331.3 361.35 332.26 361.935 332.333 362.1 C 332.407 362.265 332.722 362.4 333.033 362.4 C 333.345 362.4 333.6 362.577 333.6 362.792 C 333.6 363.008 334.05 363.298 334.6 363.436 C 335.15 363.574 335.6 363.847 335.6 364.043 C 335.6 364.24 335.842 364.4 336.138 364.4 C 336.434 364.4 337.002 364.76 337.4 365.2 C 337.798 365.64 338.351 366 338.629 366 C 338.906 366 339.193 366.136 339.267 366.303 C 339.34 366.47 340.209 367.235 341.199 368.003 C 344.069 370.232 344.786 370.855 347.467 373.453 C 348.86 374.802 350 376.041 350 376.207 C 350 376.373 350.429 376.906 350.953 377.392 C 351.477 377.878 352.03 378.663 352.18 379.138 C 352.331 379.612 352.593 380 352.763 380 C 352.932 380 353.415 380.718 353.836 381.595 C 354.256 382.473 354.727 383.193 354.882 383.195 C 355.037 383.198 355.288 383.875 355.44 384.7 C 355.591 385.525 355.88 386.307 356.08 386.437 C 356.281 386.568 356.551 387.698 356.68 388.949 C 356.809 390.2 357.069 391.319 357.257 391.435 C 357.726 391.725 357.693 399.041 357.22 399.905 C 357.01 400.287 356.727 401.635 356.591 402.9 C 356.454 404.165 356.198 405.2 356.022 405.2 C 355.846 405.2 355.587 405.92 355.446 406.8 C 355.306 407.68 355.055 408.4 354.89 408.4 C 354.589 408.4 353.864 409.592 353.371 410.9 C 353.226 411.285 352.948 411.6 352.753 411.6 C 352.559 411.6 352.4 411.873 352.4 412.206 C 352.4 412.927 345.695 419.6 344.97 419.6 C 344.693 419.6 344.407 419.742 344.333 419.914 C 343.978 420.753 338.442 423.959 337.3 423.987 C 337.025 423.994 336.8 424.18 336.8 424.4 C 336.8 424.62 336.485 424.801 336.1 424.802 C 335.715 424.804 334.884 425.074 334.254 425.402 C 333.624 425.731 332.769 426 332.354 426 C 331.939 426 331.6 426.159 331.6 426.354 C 331.6 426.549 330.565 426.837 329.3 426.995 C 328.035 427.152 326.907 427.43 326.794 427.612 C 326.681 427.794 324.971 428.072 322.994 428.229 C 321.017 428.387 319.297 428.673 319.171 428.866 C 318.87 429.327 294.165 429.314 293.281 428.852 C 292.907 428.656 290.665 428.367 288.3 428.209 C 285.935 428.052 283.91 427.779 283.801 427.602 C 283.692 427.426 282.342 427.155 280.802 427 C 279.261 426.845 278 426.578 278 426.405 C 278 426.232 277.505 425.996 276.9 425.88 C 274.913 425.499 272.212 424.752 271.549 424.4 C 271.191 424.21 270.246 423.932 269.449 423.783 C 268.652 423.633 268 423.374 268 423.207 C 268 423.039 267.282 422.787 266.405 422.647 C 265.528 422.507 264.192 422.045 263.435 421.62 C 262.679 421.195 261.417 420.727 260.63 420.579 C 259.844 420.432 259.2 420.159 259.2 419.974 C 259.2 419.788 258.568 419.518 257.796 419.373 C 257.023 419.228 256.293 418.95 256.172 418.755 C 255.738 418.053 254.988 418.45 254.362 419.713 C 253.117 422.225 251.091 425.803 250.802 426 C 250.64 426.11 250.372 426.636 250.205 427.168 C 250.039 427.701 249.304 429.073 248.572 430.217 C 247.84 431.361 247.122 432.771 246.977 433.349 C 246.832 433.927 246.553 434.4 246.357 434.4 C 246.16 434.4 246 434.655 246 434.967 C 246 435.278 245.865 435.593 245.7 435.667 C 245.535 435.74 244.95 436.697 244.4 437.793 C 243.85 438.889 243.175 440.027 242.9 440.321 C 242.138 441.138 242.301 441.977 243.3 442.379 C 246.338 443.6 246.8 443.82 246.8 444.053 C 246.8 444.195 247.422 444.428 248.183 444.57 C 248.944 444.713 250.069 445.092 250.683 445.412 C 251.297 445.733 252.205 445.996 252.7 445.998 C 253.195 445.999 253.6 446.16 253.6 446.355 C 253.6 446.55 254.436 446.835 255.459 446.988 C 256.481 447.141 257.651 447.432 258.059 447.633 C 258.466 447.835 259.144 448.172 259.565 448.382 C 259.986 448.591 261.246 448.885 262.365 449.033 C 263.484 449.182 264.4 449.437 264.4 449.6 C 264.4 449.763 265.66 450.021 267.2 450.173 C 268.74 450.324 270 450.602 270 450.79 C 270 450.978 271.35 451.258 273 451.413 C 274.65 451.567 276 451.836 276 452.01 C 276 452.184 276.945 452.425 278.1 452.546 C 279.255 452.668 281.46 452.954 283 453.182 C 290.922 454.357 335.48 454.006 335.933 452.765 C 336.007 452.564 336.952 452.4 338.033 452.4 C 339.115 452.4 340 452.238 340 452.041 C 340 451.843 341.261 451.555 342.802 451.4 C 344.342 451.245 345.69 450.978 345.796 450.806 C 345.903 450.634 346.982 450.37 348.195 450.218 C 349.408 450.066 350.4 449.8 350.4 449.626 C 350.4 449.451 351.206 449.198 352.191 449.063 C 353.176 448.928 354.301 448.649 354.691 448.442 C 356.441 447.516 358.39 446.8 359.16 446.8 C 359.622 446.8 360 446.636 360 446.435 C 360 446.234 360.72 445.949 361.6 445.8 C 362.48 445.651 363.2 445.366 363.2 445.165 C 363.2 444.964 363.42 444.8 363.688 444.8 C 364.167 444.8 371.606 441.231 372 440.813 C 372.11 440.696 372.875 440.257 373.7 439.837 C 374.525 439.417 375.2 438.922 375.2 438.737 C 375.2 438.552 375.387 438.4 375.616 438.4 C 376.008 438.4 378.05 437.08 379.019 436.2 C 379.261 435.98 380.061 435.35 380.797 434.8 C 382.978 433.169 390.319 425.686 390.597 424.809 C 390.738 424.364 391.026 424 391.237 424 C 391.447 424 391.795 423.595 392.009 423.1 C 392.433 422.12 393.27 420.718 393.621 420.4 C 393.977 420.078 395.2 417.32 395.2 416.84 C 395.2 416.598 395.366 416.4 395.568 416.4 C 395.771 416.4 396.055 415.86 396.2 415.2 C 396.345 414.54 396.606 414 396.781 414 C 396.955 414 397.219 413.244 397.366 412.32 C 397.514 411.396 397.77 410.451 397.934 410.22 C 400.216 407.016 400.876 384.539 398.827 379.8 C 398.637 379.36 398.193 378.343 397.841 377.54 C 397.488 376.736 397.2 375.802 397.2 375.463 C 397.2 375.124 397.034 374.745 396.831 374.619 C 396.628 374.494 396.343 373.853 396.199 373.195 C 396.055 372.538 395.79 372 395.612 372 C 395.433 372 395.174 371.55 395.036 371 C 394.898 370.45 394.608 370 394.392 370 C 394.177 370 394 369.745 394 369.433 C 394 369.122 393.865 368.807 393.7 368.733 C 393.535 368.66 392.954 367.745 392.408 366.7 C 391.863 365.655 391.278 364.8 391.108 364.8 C 390.939 364.8 390.8 364.611 390.8 364.381 C 390.8 364.15 390.35 363.545 389.8 363.035 C 389.25 362.525 388.8 361.936 388.8 361.725 C 388.8 361.301 382.045 354.4 381.63 354.4 C 381.487 354.4 380.411 353.5 379.239 352.4 C 378.068 351.3 376.976 350.4 376.813 350.4 C 376.65 350.4 376.068 349.995 375.52 349.5 C 373.643 347.805 372.226 346.8 371.713 346.8 C 371.431 346.8 371.2 346.614 371.2 346.387 C 371.2 346.161 370.885 345.859 370.5 345.717 C 370.115 345.575 369.243 345.041 368.562 344.529 C 367.881 344.018 367.131 343.6 366.896 343.6 C 366.66 343.6 366.407 343.465 366.333 343.3 C 366.26 343.135 365.3 342.55 364.2 342 C 363.1 341.45 362.11 340.91 362 340.8 C 361.89 340.69 360.54 339.97 359 339.2 C 357.46 338.43 356.11 337.693 356 337.562 C 355.89 337.43 355.305 337.202 354.7 337.054 C 354.095 336.906 353.6 336.608 353.6 336.392 C 353.6 336.177 353.24 336 352.8 336 C 352.36 336 352 335.862 352 335.693 C 352 335.524 350.875 334.946 349.5 334.408 C 348.125 333.87 346.91 333.332 346.8 333.211 C 346.69 333.091 345.97 332.696 345.2 332.335 C 344.43 331.973 342.672 331.12 341.294 330.439 C 339.916 329.757 338.431 329.2 337.994 329.2 C 337.557 329.2 337.2 329.02 337.2 328.8 C 337.2 328.58 336.945 328.4 336.633 328.4 C 336.322 328.4 336.007 328.265 335.933 328.1 C 335.774 327.741 331.594 326 330.892 326 C 330.622 326 330.4 325.82 330.4 325.6 C 330.4 325.38 330.175 325.197 329.9 325.192 C 329.625 325.188 327.78 324.379 325.8 323.395 C 323.82 322.411 321.885 321.604 321.5 321.603 C 321.115 321.601 320.8 321.434 320.8 321.232 C 320.8 321.029 320.26 320.745 319.6 320.6 C 318.94 320.455 318.4 320.171 318.4 319.968 C 318.4 319.766 318.145 319.6 317.833 319.6 C 317.522 319.6 317.207 319.465 317.133 319.3 C 317.06 319.135 316.103 318.55 315.007 318 C 313.911 317.45 312.773 316.775 312.479 316.5 C 312.184 316.225 311.686 316 311.371 316 C 311.057 316 310.8 315.841 310.8 315.647 C 310.8 315.452 310.485 315.188 310.1 315.058 C 309.104 314.724 307.855 313.885 307.48 313.3 C 307.304 313.025 306.942 312.8 306.676 312.8 C 306.41 312.8 305.707 312.35 305.113 311.8 C 304.52 311.25 303.942 310.8 303.829 310.8 C 303.468 310.8 295.6 302.838 295.6 302.473 C 295.6 302.281 295.24 301.798 294.8 301.4 C 294.36 301.002 294 300.434 294 300.138 C 294 299.842 293.82 299.6 293.6 299.6 C 293.38 299.6 293.2 299.33 293.2 299 C 293.2 298.67 293.023 298.4 292.808 298.4 C 292.592 298.4 292.294 297.917 292.146 297.327 C 291.998 296.736 291.635 295.791 291.341 295.227 C 291.046 294.662 290.804 293.831 290.802 293.38 C 290.801 292.929 290.623 292.383 290.407 292.167 C 289.807 291.567 289.479 282.932 289.952 280.2 C 290.605 276.429 291.332 273.6 291.647 273.6 C 291.806 273.6 292.055 273.06 292.2 272.4 C 292.345 271.74 292.629 271.2 292.832 271.2 C 293.034 271.2 293.2 271.007 293.2 270.771 C 293.2 270.536 293.425 270.092 293.7 269.785 C 294.829 268.526 295.201 268.018 295.21 267.717 C 295.237 266.904 302.091 261.2 303.041 261.2 C 303.152 261.2 303.905 260.75 304.714 260.2 C 305.523 259.65 306.504 259.2 306.893 259.2 C 307.282 259.2 307.6 259.034 307.6 258.832 C 307.6 258.629 308.138 258.345 308.795 258.201 C 309.453 258.057 310.094 257.772 310.219 257.569 C 310.345 257.366 310.797 257.2 311.224 257.2 C 311.651 257.2 312 257.037 312 256.838 C 312 256.638 312.9 256.351 314 256.2 C 315.099 256.049 316.089 255.78 316.199 255.602 C 316.309 255.424 317.524 255.151 318.899 254.995 C 320.275 254.839 321.601 254.549 321.847 254.351 C 323.131 253.315 352.109 253.328 353.358 254.366 C 353.601 254.567 355.109 254.861 356.709 255.019 C 358.309 255.176 359.706 255.447 359.813 255.621 C 359.921 255.795 361.177 256.062 362.604 256.215 C 364.032 256.368 365.2 256.652 365.2 256.847 C 365.2 257.041 365.639 257.2 366.176 257.2 C 366.713 257.2 367.251 257.359 367.371 257.554 C 367.492 257.748 368.403 258.03 369.397 258.179 C 370.391 258.328 371.698 258.707 372.302 259.022 C 372.906 259.337 373.805 259.596 374.3 259.598 C 374.795 259.599 375.201 259.735 375.201 259.9 C 375.202 260.065 376.057 260.528 377.101 260.929 C 378.146 261.329 379.322 261.83 379.716 262.042 C 380.539 262.484 381.328 261.886 381.774 260.481 C 381.928 259.997 382.207 259.6 382.395 259.6 C 382.583 259.6 382.855 259.06 383 258.4 C 383.145 257.74 383.426 257.2 383.624 257.2 C 383.822 257.2 384.098 256.75 384.236 256.2 C 384.374 255.65 384.602 255.198 384.743 255.195 C 384.885 255.193 385.359 254.428 385.797 253.495 C 386.236 252.563 386.821 251.562 387.097 251.271 C 387.374 250.981 387.6 250.486 387.6 250.171 C 387.6 249.857 387.76 249.6 387.957 249.6 C 388.153 249.6 388.43 249.135 388.573 248.566 C 388.716 247.997 389.192 247.146 389.632 246.674 C 390.071 246.202 390.534 245.407 390.659 244.908 C 390.784 244.409 391.033 244 391.212 244 C 391.39 244 391.655 243.46 391.8 242.8 C 391.945 242.14 392.217 241.6 392.405 241.6 C 392.918 241.6 393.288 240.108 393 239.2 C 392.838 238.689 392.395 238.4 391.773 238.4 C 391.238 238.4 390.8 238.222 390.8 238.005 C 390.8 237.787 390.08 237.494 389.2 237.354 C 388.32 237.213 387.6 236.952 387.6 236.773 C 387.6 236.595 386.79 236.328 385.8 236.179 C 384.81 236.031 384 235.75 384 235.555 C 384 235.36 383.561 235.2 383.024 235.2 C 382.487 235.2 381.944 235.033 381.817 234.828 C 381.691 234.623 380.598 234.332 379.388 234.181 C 378.179 234.03 377.096 233.756 376.983 233.572 C 376.869 233.388 375.701 233.115 374.388 232.967 C 373.075 232.818 372 232.561 372 232.395 C 372 232.229 370.785 231.965 369.3 231.807 C 367.815 231.65 366.42 231.378 366.2 231.204 C 365.794 230.881 365.01 230.757 358.6 230.001 C 356.62 229.768 354.19 229.386 353.2 229.152 C 350.954 228.622 325.846 228.357 321.2 228.814 Z  M 138.6 239.049 C 129.413 240.425 120.016 245.108 112.656 251.977 C 110.881 253.634 105.2 260.791 105.2 261.371 C 105.2 261.506 104.786 262.287 104.279 263.108 C 93.62 280.386 98.094 306.808 114.061 320.871 C 125.91 331.308 144.014 335.741 157.6 331.532 C 167.703 328.402 174.091 324.501 180.622 317.474 C 203.655 292.689 192.615 251.023 160.362 241.006 C 158.513 240.432 156.46 239.772 155.8 239.541 C 154.583 239.113 140.801 238.72 138.6 239.049 Z " fill-rule="evenodd" fill="rgb(238,247,248)"/></svg>